<svg xmlns="http://www.w3.org/2000/svg" viewBox="0 0 320 200" fill="none">
  <style>
    @keyframes traceGlow { 0%, 100% { opacity: 0.85; } 50% { opacity: 1; } }
    @keyframes nodePulse { 0%, 100% { opacity: 0.9; } 50% { opacity: 1; } }
    @keyframes lightTravel {
      0% { stroke-dashoffset: 0; }
      100% { stroke-dashoffset: 420; }
    }
    .trace { animation: traceGlow 3s ease-in-out infinite; }
    .glow-node { animation: nodePulse 2s ease-in-out infinite; }
    .light-pulse {
      stroke-dasharray: 20 400;
      animation: lightTravel 2.5s linear infinite;
    }
  </style>
  <defs>
    <filter id="traceGlow" x="-30%" y="-30%" width="160%" height="160%">
      <feGaussianBlur in="SourceGraphic" stdDeviation="1.5" result="blur"/>
      <feMerge>
        <feMergeNode in="blur"/>
        <feMergeNode in="blur"/>
        <feMergeNode in="SourceGraphic"/>
      </feMerge>
    </filter>
    <filter id="nodeGlow" x="-60%" y="-60%" width="220%" height="220%">
      <feGaussianBlur in="SourceGraphic" stdDeviation="2.5" result="blur"/>
      <feMerge>
        <feMergeNode in="blur"/>
        <feMergeNode in="blur"/>
        <feMergeNode in="SourceGraphic"/>
      </feMerge>
    </filter>
    <filter id="chipGlow" x="-20%" y="-20%" width="140%" height="140%">
      <feGaussianBlur in="SourceGraphic" stdDeviation="0.8" result="blur"/>
      <feMerge>
        <feMergeNode in="blur"/>
        <feMergeNode in="SourceGraphic"/>
      </feMerge>
    </filter>
    <linearGradient id="chipGrad" x1="0%" y1="0%" x2="100%" y2="100%">
      <stop offset="0%" stop-color="#0f172a"/>
      <stop offset="50%" stop-color="#020617"/>
      <stop offset="100%" stop-color="#0f172a"/>
    </linearGradient>
    <radialGradient id="nodeRadial" cx="50%" cy="50%" r="50%">
      <stop offset="0%" stop-color="#e0f7fa"/>
      <stop offset="50%" stop-color="#4dd0e1"/>
      <stop offset="100%" stop-color="#0097a7"/>
    </radialGradient>
  </defs>

  <!-- PCB -->
  <rect x="0" y="0" width="320" height="200" fill="#050a12"/>
  <rect x="15" y="15" width="290" height="170" rx="8" fill="#0a1220" stroke="#0f2744" stroke-width="0.5"/>

  <!-- NodeMCU v2: pines en los lados LARGOS (arriba y abajo). X: 35,55,75...285 (15 pins) -->
  <!-- Arriba (y=22): VIN,GND,RST,EN,3V3,GND,CLK,SDO,CMD,SDI,SD0,SD1,SD2,SD3,A0 -->
  <!-- Abajo (y=178): 3V3,GND,TX,RX,D8,D7,D6,D5,D4,D3,D2,D1,D0,-,- -->

  <!-- Circuit traces - desde lados largos (arriba/abajo) hacia el chip -->
  <g filter="url(#traceGlow)" class="trace">
    <!-- Top 15 pins - trazas bajan hacia el chip -->
    <path d="M 35 22 L 35 65 L 118 82" stroke="#4dd0e1" stroke-width="1" fill="none"/>
    <path d="M 55 22 L 55 70 L 118 86" stroke="#4dd0e1" stroke-width="1" fill="none"/>
    <path d="M 75 22 L 75 68 L 118 90" stroke="#4dd0e1" stroke-width="1" fill="none"/>
    <path d="M 95 22 L 95 72 L 118 94" stroke="#4dd0e1" stroke-width="1" fill="none"/>
    <path d="M 115 22 L 115 70 L 118 98" stroke="#4dd0e1" stroke-width="1" fill="none"/>
    <path d="M 135 22 L 135 68 L 118 102" stroke="#4dd0e1" stroke-width="1" fill="none"/>
    <path d="M 155 22 L 155 65 L 160 106" stroke="#4dd0e1" stroke-width="1" fill="none"/>
    <path d="M 175 22 L 175 68 L 202 102" stroke="#4dd0e1" stroke-width="1" fill="none"/>
    <path d="M 195 22 L 195 70 L 202 98" stroke="#4dd0e1" stroke-width="1" fill="none"/>
    <path d="M 215 22 L 215 72 L 202 94" stroke="#4dd0e1" stroke-width="1" fill="none"/>
    <path d="M 235 22 L 235 68 L 202 90" stroke="#4dd0e1" stroke-width="1" fill="none"/>
    <path d="M 255 22 L 255 70 L 202 86" stroke="#4dd0e1" stroke-width="1" fill="none"/>
    <path d="M 275 22 L 275 65 L 202 82" stroke="#4dd0e1" stroke-width="1" fill="none"/>
    <path d="M 285 22 L 285 68 L 202 78" stroke="#4dd0e1" stroke-width="1" fill="none"/>
    <path d="M 305 22 L 305 65 L 202 75" stroke="#4dd0e1" stroke-width="1" fill="none"/>
    <!-- Bottom 15 pins - trazas suben hacia el chip -->
    <path d="M 35 178 L 35 135 L 118 118" stroke="#4dd0e1" stroke-width="1" fill="none"/>
    <path d="M 55 178 L 55 130 L 118 122" stroke="#4dd0e1" stroke-width="1" fill="none"/>
    <path d="M 75 178 L 75 132 L 118 126" stroke="#4dd0e1" stroke-width="1" fill="none"/>
    <path d="M 95 178 L 95 128 L 118 130" stroke="#4dd0e1" stroke-width="1" fill="none"/>
    <path d="M 115 178 L 115 130 L 118 134" stroke="#4dd0e1" stroke-width="1" fill="none"/>
    <path d="M 135 178 L 135 132 L 118 138" stroke="#4dd0e1" stroke-width="1" fill="none"/>
    <path d="M 155 178 L 155 135 L 160 100" stroke="#4dd0e1" stroke-width="1" fill="none"/>
    <path d="M 175 178 L 175 132 L 202 98" stroke="#4dd0e1" stroke-width="1" fill="none"/>
    <path d="M 195 178 L 195 130 L 202 102" stroke="#4dd0e1" stroke-width="1" fill="none"/>
    <path d="M 215 178 L 215 128 L 202 106" stroke="#4dd0e1" stroke-width="1" fill="none"/>
    <path d="M 235 178 L 235 132 L 202 110" stroke="#4dd0e1" stroke-width="1" fill="none"/>
    <path d="M 255 178 L 255 130 L 202 114" stroke="#4dd0e1" stroke-width="1" fill="none"/>
    <path d="M 275 178 L 275 135 L 202 118" stroke="#4dd0e1" stroke-width="1" fill="none"/>
    <path d="M 285 178 L 285 132 L 202 122" stroke="#4dd0e1" stroke-width="1" fill="none"/>
    <path d="M 305 178 L 305 135 L 202 126" stroke="#4dd0e1" stroke-width="1" fill="none"/>
  </g>

  <!-- Light pulse -->
  <g stroke="#e0f7fa" stroke-width="2" fill="none" opacity="0.95" filter="url(#traceGlow)">
    <path class="light-pulse" d="M 35 22 L 35 65 L 118 82"/>
    <path class="light-pulse" d="M 55 22 L 55 70 L 118 86" style="animation-delay: 0.07s"/>
    <path class="light-pulse" d="M 75 22 L 75 68 L 118 90" style="animation-delay: 0.14s"/>
    <path class="light-pulse" d="M 95 22 L 95 72 L 118 94" style="animation-delay: 0.21s"/>
    <path class="light-pulse" d="M 115 22 L 115 70 L 118 98" style="animation-delay: 0.28s"/>
    <path class="light-pulse" d="M 135 22 L 135 68 L 118 102" style="animation-delay: 0.35s"/>
    <path class="light-pulse" d="M 155 22 L 155 65 L 160 106" style="animation-delay: 0.42s"/>
    <path class="light-pulse" d="M 175 22 L 175 68 L 202 102" style="animation-delay: 0.49s"/>
    <path class="light-pulse" d="M 195 22 L 195 70 L 202 98" style="animation-delay: 0.56s"/>
    <path class="light-pulse" d="M 215 22 L 215 72 L 202 94" style="animation-delay: 0.63s"/>
    <path class="light-pulse" d="M 235 22 L 235 68 L 202 90" style="animation-delay: 0.70s"/>
    <path class="light-pulse" d="M 255 22 L 255 70 L 202 86" style="animation-delay: 0.77s"/>
    <path class="light-pulse" d="M 275 22 L 275 65 L 202 82" style="animation-delay: 0.84s"/>
    <path class="light-pulse" d="M 285 22 L 285 68 L 202 78" style="animation-delay: 0.91s"/>
    <path class="light-pulse" d="M 305 22 L 305 65 L 202 75" style="animation-delay: 0.98s"/>
    <path class="light-pulse" d="M 35 178 L 35 135 L 118 118" style="animation-delay: 0.04s"/>
    <path class="light-pulse" d="M 55 178 L 55 130 L 118 122" style="animation-delay: 0.11s"/>
    <path class="light-pulse" d="M 75 178 L 75 132 L 118 126" style="animation-delay: 0.18s"/>
    <path class="light-pulse" d="M 95 178 L 95 128 L 118 130" style="animation-delay: 0.25s"/>
    <path class="light-pulse" d="M 115 178 L 115 130 L 118 134" style="animation-delay: 0.32s"/>
    <path class="light-pulse" d="M 135 178 L 135 132 L 118 138" style="animation-delay: 0.39s"/>
    <path class="light-pulse" d="M 155 178 L 155 135 L 160 100" style="animation-delay: 0.46s"/>
    <path class="light-pulse" d="M 175 178 L 175 132 L 202 98" style="animation-delay: 0.53s"/>
    <path class="light-pulse" d="M 195 178 L 195 130 L 202 102" style="animation-delay: 0.60s"/>
    <path class="light-pulse" d="M 215 178 L 215 128 L 202 106" style="animation-delay: 0.67s"/>
    <path class="light-pulse" d="M 235 178 L 235 132 L 202 110" style="animation-delay: 0.74s"/>
    <path class="light-pulse" d="M 255 178 L 255 130 L 202 114" style="animation-delay: 0.81s"/>
    <path class="light-pulse" d="M 275 178 L 275 135 L 202 118" style="animation-delay: 0.88s"/>
    <path class="light-pulse" d="M 285 178 L 285 132 L 202 122" style="animation-delay: 0.95s"/>
    <path class="light-pulse" d="M 305 178 L 305 135 L 202 126" style="animation-delay: 1.02s"/>
  </g>

  <!-- Pin nodes - arriba y abajo (lados largos) -->
  <g filter="url(#nodeGlow)">
    <circle class="glow-node" cx="35" cy="22" r="2.5" fill="url(#nodeRadial)" stroke="#80deea" stroke-width="0.5"/>
    <circle class="glow-node" cx="55" cy="22" r="2.5" fill="url(#nodeRadial)" stroke="#80deea" stroke-width="0.5"/>
    <circle class="glow-node" cx="75" cy="22" r="2.5" fill="url(#nodeRadial)" stroke="#80deea" stroke-width="0.5"/>
    <circle class="glow-node" cx="95" cy="22" r="2.5" fill="url(#nodeRadial)" stroke="#80deea" stroke-width="0.5"/>
    <circle class="glow-node" cx="115" cy="22" r="2.5" fill="url(#nodeRadial)" stroke="#80deea" stroke-width="0.5"/>
    <circle class="glow-node" cx="135" cy="22" r="2.5" fill="url(#nodeRadial)" stroke="#80deea" stroke-width="0.5"/>
    <circle class="glow-node" cx="155" cy="22" r="2.5" fill="url(#nodeRadial)" stroke="#80deea" stroke-width="0.5"/>
    <circle class="glow-node" cx="175" cy="22" r="2.5" fill="url(#nodeRadial)" stroke="#80deea" stroke-width="0.5"/>
    <circle class="glow-node" cx="195" cy="22" r="2.5" fill="url(#nodeRadial)" stroke="#80deea" stroke-width="0.5"/>
    <circle class="glow-node" cx="215" cy="22" r="2.5" fill="url(#nodeRadial)" stroke="#80deea" stroke-width="0.5"/>
    <circle class="glow-node" cx="235" cy="22" r="2.5" fill="url(#nodeRadial)" stroke="#80deea" stroke-width="0.5"/>
    <circle class="glow-node" cx="255" cy="22" r="2.5" fill="url(#nodeRadial)" stroke="#80deea" stroke-width="0.5"/>
    <circle class="glow-node" cx="275" cy="22" r="2.5" fill="url(#nodeRadial)" stroke="#80deea" stroke-width="0.5"/>
    <circle class="glow-node" cx="285" cy="22" r="2.5" fill="url(#nodeRadial)" stroke="#80deea" stroke-width="0.5"/>
    <circle class="glow-node" cx="305" cy="22" r="2.5" fill="url(#nodeRadial)" stroke="#80deea" stroke-width="0.5"/>
    <circle class="glow-node" cx="35" cy="178" r="2.5" fill="url(#nodeRadial)" stroke="#80deea" stroke-width="0.5"/>
    <circle class="glow-node" cx="55" cy="178" r="2.5" fill="url(#nodeRadial)" stroke="#80deea" stroke-width="0.5"/>
    <circle class="glow-node" cx="75" cy="178" r="2.5" fill="url(#nodeRadial)" stroke="#80deea" stroke-width="0.5"/>
    <circle class="glow-node" cx="95" cy="178" r="2.5" fill="url(#nodeRadial)" stroke="#80deea" stroke-width="0.5"/>
    <circle class="glow-node" cx="115" cy="178" r="2.5" fill="url(#nodeRadial)" stroke="#80deea" stroke-width="0.5"/>
    <circle class="glow-node" cx="135" cy="178" r="2.5" fill="url(#nodeRadial)" stroke="#80deea" stroke-width="0.5"/>
    <circle class="glow-node" cx="155" cy="178" r="2.5" fill="url(#nodeRadial)" stroke="#80deea" stroke-width="0.5"/>
    <circle class="glow-node" cx="175" cy="178" r="2.5" fill="url(#nodeRadial)" stroke="#80deea" stroke-width="0.5"/>
    <circle class="glow-node" cx="195" cy="178" r="2.5" fill="url(#nodeRadial)" stroke="#80deea" stroke-width="0.5"/>
    <circle class="glow-node" cx="215" cy="178" r="2.5" fill="url(#nodeRadial)" stroke="#80deea" stroke-width="0.5"/>
    <circle class="glow-node" cx="235" cy="178" r="2.5" fill="url(#nodeRadial)" stroke="#80deea" stroke-width="0.5"/>
    <circle class="glow-node" cx="255" cy="178" r="2.5" fill="url(#nodeRadial)" stroke="#80deea" stroke-width="0.5"/>
    <circle class="glow-node" cx="275" cy="178" r="2.5" fill="url(#nodeRadial)" stroke="#80deea" stroke-width="0.5"/>
    <circle class="glow-node" cx="285" cy="178" r="2.5" fill="url(#nodeRadial)" stroke="#80deea" stroke-width="0.5"/>
    <circle class="glow-node" cx="305" cy="178" r="2.5" fill="url(#nodeRadial)" stroke="#80deea" stroke-width="0.5"/>
  </g>

  <!-- Pin labels - Top (lado largo arriba) -->
  <text x="35" y="18" font-family="monospace" font-size="5" fill="#80deea" font-weight="600" text-anchor="middle">VIN</text>
  <text x="55" y="18" font-family="monospace" font-size="5" fill="#80deea" font-weight="600" text-anchor="middle">GND</text>
  <text x="75" y="18" font-family="monospace" font-size="5" fill="#80deea" font-weight="600" text-anchor="middle">RST</text>
  <text x="95" y="18" font-family="monospace" font-size="5" fill="#80deea" font-weight="600" text-anchor="middle">EN</text>
  <text x="115" y="18" font-family="monospace" font-size="5" fill="#80deea" font-weight="600" text-anchor="middle">3V3</text>
  <text x="135" y="18" font-family="monospace" font-size="5" fill="#80deea" font-weight="600" text-anchor="middle">GND</text>
  <text x="155" y="18" font-family="monospace" font-size="5" fill="#80deea" font-weight="600" text-anchor="middle">CLK</text>
  <text x="175" y="18" font-family="monospace" font-size="5" fill="#80deea" font-weight="600" text-anchor="middle">SDO</text>
  <text x="195" y="18" font-family="monospace" font-size="5" fill="#80deea" font-weight="600" text-anchor="middle">CMD</text>
  <text x="215" y="18" font-family="monospace" font-size="5" fill="#80deea" font-weight="600" text-anchor="middle">SDI</text>
  <text x="235" y="18" font-family="monospace" font-size="5" fill="#80deea" font-weight="600" text-anchor="middle">SD0</text>
  <text x="255" y="18" font-family="monospace" font-size="5" fill="#80deea" font-weight="600" text-anchor="middle">SD1</text>
  <text x="275" y="18" font-family="monospace" font-size="5" fill="#80deea" font-weight="600" text-anchor="middle">SD2</text>
  <text x="285" y="18" font-family="monospace" font-size="5" fill="#80deea" font-weight="600" text-anchor="middle">SD3</text>
  <text x="305" y="18" font-family="monospace" font-size="5" fill="#80deea" font-weight="600" text-anchor="middle">A0</text>
  <!-- Pin labels - Bottom (lado largo abajo) -->
  <text x="35" y="185" font-family="monospace" font-size="5" fill="#80deea" font-weight="600" text-anchor="middle">3V3</text>
  <text x="55" y="185" font-family="monospace" font-size="5" fill="#80deea" font-weight="600" text-anchor="middle">GND</text>
  <text x="75" y="185" font-family="monospace" font-size="5" fill="#80deea" font-weight="600" text-anchor="middle">TX</text>
  <text x="95" y="185" font-family="monospace" font-size="5" fill="#80deea" font-weight="600" text-anchor="middle">RX</text>
  <text x="115" y="185" font-family="monospace" font-size="5" fill="#80deea" font-weight="600" text-anchor="middle">D8</text>
  <text x="135" y="185" font-family="monospace" font-size="5" fill="#80deea" font-weight="600" text-anchor="middle">D7</text>
  <text x="155" y="185" font-family="monospace" font-size="5" fill="#80deea" font-weight="600" text-anchor="middle">D6</text>
  <text x="175" y="185" font-family="monospace" font-size="5" fill="#80deea" font-weight="600" text-anchor="middle">D5</text>
  <text x="195" y="185" font-family="monospace" font-size="5" fill="#80deea" font-weight="600" text-anchor="middle">D4</text>
  <text x="215" y="185" font-family="monospace" font-size="5" fill="#80deea" font-weight="600" text-anchor="middle">D3</text>
  <text x="235" y="185" font-family="monospace" font-size="5" fill="#80deea" font-weight="600" text-anchor="middle">D2</text>
  <text x="255" y="185" font-family="monospace" font-size="5" fill="#80deea" font-weight="600" text-anchor="middle">D1</text>
  <text x="275" y="185" font-family="monospace" font-size="5" fill="#80deea" font-weight="600" text-anchor="middle">D0</text>
  <text x="285" y="185" font-family="monospace" font-size="5" fill="#80deea" font-weight="600" text-anchor="middle">-</text>
  <text x="305" y="185" font-family="monospace" font-size="5" fill="#80deea" font-weight="600" text-anchor="middle">-</text>

  <!-- Peripheral components -->
  <rect x="55" y="65" width="10" height="3" rx="1" fill="#0d1b2a" stroke="#1e3a5f" stroke-width="0.3"/>
  <rect x="255" y="65" width="10" height="3" rx="1" fill="#0d1b2a" stroke="#1e3a5f" stroke-width="0.3"/>
  <ellipse cx="75" cy="95" rx="4" ry="2.5" fill="#0d1b2a" stroke="#1e3a5f" stroke-width="0.3"/>
  <ellipse cx="245" cy="95" rx="4" ry="2.5" fill="#0d1b2a" stroke="#1e3a5f" stroke-width="0.3"/>

  <!-- ESP8266 chip - centro con pads arriba y abajo -->
  <g filter="url(#chipGlow)">
    <rect x="118" y="75" width="84" height="50" rx="2" fill="url(#chipGrad)" stroke="#4dd0e1" stroke-width="1.5"/>
    <!-- Pads top -->
    <rect x="120" y="72" width="5" height="3" rx="0.5" fill="#1e3a5f" stroke="#4dd0e1" stroke-width="0.4"/>
    <rect x="130" y="72" width="5" height="3" rx="0.5" fill="#1e3a5f" stroke="#4dd0e1" stroke-width="0.4"/>
    <rect x="140" y="72" width="5" height="3" rx="0.5" fill="#1e3a5f" stroke="#4dd0e1" stroke-width="0.4"/>
    <rect x="150" y="72" width="5" height="3" rx="0.5" fill="#1e3a5f" stroke="#4dd0e1" stroke-width="0.4"/>
    <rect x="160" y="72" width="5" height="3" rx="0.5" fill="#1e3a5f" stroke="#4dd0e1" stroke-width="0.4"/>
    <rect x="170" y="72" width="5" height="3" rx="0.5" fill="#1e3a5f" stroke="#4dd0e1" stroke-width="0.4"/>
    <rect x="180" y="72" width="5" height="3" rx="0.5" fill="#1e3a5f" stroke="#4dd0e1" stroke-width="0.4"/>
    <rect x="190" y="72" width="5" height="3" rx="0.5" fill="#1e3a5f" stroke="#4dd0e1" stroke-width="0.4"/>
    <!-- Pads bottom -->
    <rect x="120" y="125" width="5" height="3" rx="0.5" fill="#1e3a5f" stroke="#4dd0e1" stroke-width="0.4"/>
    <rect x="130" y="125" width="5" height="3" rx="0.5" fill="#1e3a5f" stroke="#4dd0e1" stroke-width="0.4"/>
    <rect x="140" y="125" width="5" height="3" rx="0.5" fill="#1e3a5f" stroke="#4dd0e1" stroke-width="0.4"/>
    <rect x="150" y="125" width="5" height="3" rx="0.5" fill="#1e3a5f" stroke="#4dd0e1" stroke-width="0.4"/>
    <rect x="160" y="125" width="5" height="3" rx="0.5" fill="#1e3a5f" stroke="#4dd0e1" stroke-width="0.4"/>
    <rect x="170" y="125" width="5" height="3" rx="0.5" fill="#1e3a5f" stroke="#4dd0e1" stroke-width="0.4"/>
    <rect x="180" y="125" width="5" height="3" rx="0.5" fill="#1e3a5f" stroke="#4dd0e1" stroke-width="0.4"/>
    <rect x="190" y="125" width="5" height="3" rx="0.5" fill="#1e3a5f" stroke="#4dd0e1" stroke-width="0.4"/>
    <circle cx="124" cy="74" r="0.8" fill="#4dd0e1" opacity="0.8"/>
  </g>
  <text x="160" y="98" text-anchor="middle" font-family="Space Grotesk, system-ui, sans-serif" font-size="11" font-weight="700" fill="#80deea">ESP8266</text>
  <text x="160" y="107" text-anchor="middle" font-family="Space Grotesk, system-ui, sans-serif" font-size="6" font-weight="500" fill="#4dd0e1" opacity="0.9">80 MHz - 4 MB Flash</text>
  <text x="160" y="114" text-anchor="middle" font-family="Space Grotesk, system-ui, sans-serif" font-size="6" font-weight="500" fill="#4dd0e1" opacity="0.9">64 KB RAM</text>
</svg>
