<svg xmlns="http://www.w3.org/2000/svg" viewBox="0 0 32 32">
  <!-- Background - ensures visibility in tab -->
  <rect width="32" height="32" rx="6" fill="#6d28d9"/>
  <!-- Chip body -->
  <rect x="10" y="10" width="12" height="12" rx="2" fill="#c4b5fd"/>
  <!-- Pins - light on dark (alargados) -->
  <rect x="11" y="1" width="2.5" height="8" rx="0.5" fill="#e9d5ff"/>
  <rect x="15" y="1" width="2.5" height="8" rx="0.5" fill="#e9d5ff"/>
  <rect x="19" y="1" width="2.5" height="8" rx="0.5" fill="#e9d5ff"/>
  <rect x="11" y="23" width="2.5" height="8" rx="0.5" fill="#e9d5ff"/>
  <rect x="15" y="23" width="2.5" height="8" rx="0.5" fill="#e9d5ff"/>
  <rect x="19" y="23" width="2.5" height="8" rx="0.5" fill="#e9d5ff"/>
  <rect x="1" y="11" width="8" height="2.5" rx="0.5" fill="#e9d5ff"/>
  <rect x="1" y="15" width="8" height="2.5" rx="0.5" fill="#e9d5ff"/>
  <rect x="1" y="19" width="8" height="2.5" rx="0.5" fill="#e9d5ff"/>
  <rect x="23" y="11" width="8" height="2.5" rx="0.5" fill="#e9d5ff"/>
  <rect x="23" y="15" width="8" height="2.5" rx="0.5" fill="#e9d5ff"/>
  <rect x="23" y="19" width="8" height="2.5" rx="0.5" fill="#e9d5ff"/>
</svg>
