<?xml version="1.0" encoding="UTF-8"?>
<svg xmlns="http://www.w3.org/2000/svg" viewBox="-220 -110 1080 670" class="anim-zoom">
  <defs>
    <style type="text/css">
      @keyframes popupShow {
        0%, 35% { opacity: 0; }
        36%, 62% { opacity: 1; }
        63%, 100% { opacity: 0; }
      }
      .popup-alerts { animation: popupShow 24s linear infinite; }
      @keyframes chartHide {
        0%, 35% { opacity: 1; }
        36%, 62% { opacity: 0; }
        63%, 100% { opacity: 1; }
      }
      .chart-phone { animation: chartHide 24s linear infinite; }
    </style>
    <linearGradient id="waterGrad" x1="0" y1="0" x2="0" y2="1" gradientUnits="objectBoundingBox">
      <stop offset="0%" style="stop-color:#0ea5e9"/>
      <stop offset="50%" style="stop-color:#38bdf8"/>
      <stop offset="100%" style="stop-color:#7dd3fc"/>
    </linearGradient>
    <linearGradient id="waterLow" x1="0%" y1="100%" x2="0%" y2="0%">
      <stop offset="0%" style="stop-color:#dc2626"/>
      <stop offset="100%" style="stop-color:#f87171"/>
    </linearGradient>
    <linearGradient id="tankGrad" x1="0%" y1="0%" x2="100%" y2="100%">
      <stop offset="0%" style="stop-color:#334155"/>
      <stop offset="50%" style="stop-color:#1e293b"/>
      <stop offset="100%" style="stop-color:#0f172a"/>
    </linearGradient>
    <linearGradient id="sensorGrad" x1="0%" y1="0%" x2="0%" y2="100%">
      <stop offset="0%" style="stop-color:#475569"/>
      <stop offset="100%" style="stop-color:#334155"/>
    </linearGradient>
    <filter id="glow">
      <feGaussianBlur stdDeviation="2" result="blur"/>
      <feMerge>
        <feMergeNode in="blur"/>
        <feMergeNode in="SourceGraphic"/>
      </feMerge>
    </filter>
    <linearGradient id="solarPanel" x1="0%" y1="0%" x2="100%" y2="100%">
      <stop offset="0%" style="stop-color:#3b82f6"/>
      <stop offset="50%" style="stop-color:#1d4ed8"/>
      <stop offset="100%" style="stop-color:#1e3a8a"/>
    </linearGradient>
    <clipPath id="waterClip">
      <rect x="128" y="300" width="164" height="200" rx="16"/>
    </clipPath>
    <filter id="sensorGlow">
      <feGaussianBlur stdDeviation="1" result="blur"/>
      <feMerge>
        <feMergeNode in="blur"/>
        <feMergeNode in="SourceGraphic"/>
      </feMerge>
    </filter>
    <filter id="callGlow" x="-80%" y="-80%" width="260%" height="260%">
      <feGaussianBlur in="SourceGraphic" stdDeviation="3" result="blur"/>
      <feFlood flood-color="#38bdf8" flood-opacity="0.5" result="color"/>
      <feComposite in="color" in2="blur" operator="in" result="glow"/>
      <feMerge>
        <feMergeNode in="glow"/>
        <feMergeNode in="SourceGraphic"/>
      </feMerge>
    </filter>
    <marker id="arrowX" markerWidth="8" markerHeight="6" refX="8" refY="3" orient="auto">
      <polygon points="0 0, 8 3, 0 6" fill="#64748b"/>
    </marker>
    <marker id="arrowY" markerWidth="6" markerHeight="8" refX="3" refY="0" orient="auto">
      <polygon points="0 8, 6 0, 6 8" fill="#64748b"/>
    </marker>
    <symbol id="whatsappIcon" viewBox="0 0 24 24">
      <path fill="#25D366" d="M17.472 14.382c-.297-.149-1.758-.867-2.03-.967-.273-.099-.471-.148-.67.15-.197.297-.767.966-.94 1.164-.173.199-.347.223-.644.075-.297-.15-1.255-.463-2.39-1.475-.883-.788-1.48-1.761-1.653-2.059-.173-.297-.018-.458.13-.606.134-.133.298-.347.446-.52.149-.174.198-.298.298-.497.099-.198.05-.371-.025-.52-.075-.149-.669-1.612-.916-2.207-.242-.579-.487-.5-.669-.51-.173-.008-.371-.01-.57-.01-.198 0-.52.074-.792.372-.272.297-1.04 1.016-1.04 2.479 0 1.462 1.065 2.875 1.213 3.074.149.198 2.096 3.2 5.077 4.487.709.306 1.262.489 1.694.625.712.227 1.36.195 1.871.118.571-.085 1.758-.719 2.006-1.413.248-.694.248-1.289.173-1.413-.074-.124-.272-.198-.57-.347m-5.421 7.403h-.004a9.87 9.87 0 01-5.031-1.378l-.361-.214-3.741.982.998-3.648-.235-.374a9.86 9.86 0 01-1.51-5.26c.001-5.45 4.436-9.884 9.888-9.884 2.64 0 5.122 1.03 6.988 2.898a9.825 9.825 0 012.893 6.994c-.003 5.45-4.437 9.884-9.885 9.884m8.413-18.297A11.815 11.815 0 0012.05 0C5.495 0 .16 5.335.157 11.892c0 2.096.547 4.142 1.588 5.945L.057 24l6.305-1.654a11.882 11.882 0 005.683 1.448h.005c6.554 0 11.89-5.335 11.893-11.893a11.821 11.821 0 00-3.48-8.413z"/>
    </symbol>
    <clipPath id="pipeClip">
      <rect x="-72" y="397" width="192" height="16" rx="4"/>
    </clipPath>
    <linearGradient id="windowGlass" x1="0%" y1="0%" x2="0%" y2="100%" gradientUnits="objectBoundingBox">
      <stop offset="0%" style="stop-color:#93c5fd;stop-opacity:0.5"/>
      <stop offset="40%" style="stop-color:#bfdbfe;stop-opacity:0.35"/>
      <stop offset="100%" style="stop-color:#e0f2fe;stop-opacity:0.25"/>
    </linearGradient>
    <linearGradient id="earthGrad" x1="0%" y1="0%" x2="0%" y2="100%" gradientUnits="objectBoundingBox">
      <stop offset="0%" style="stop-color:#a16207"/>
      <stop offset="50%" style="stop-color:#854d0e"/>
      <stop offset="100%" style="stop-color:#713f12"/>
    </linearGradient>
    <!-- Tejas terracota - gradiente y patron -->
    <linearGradient id="tileGrad" x1="0%" y1="0%" x2="0%" y2="100%">
      <stop offset="0%" style="stop-color:#b45309"/>
      <stop offset="30%" style="stop-color:#c2410c"/>
      <stop offset="70%" style="stop-color:#9a3412"/>
      <stop offset="100%" style="stop-color:#7c2d12"/>
    </linearGradient>
    <linearGradient id="planterGrad" x1="0%" y1="0%" x2="0%" y2="100%">
      <stop offset="0%" style="stop-color:#d97706"/>
      <stop offset="20%" style="stop-color:#b45309"/>
      <stop offset="50%" style="stop-color:#92400e"/>
      <stop offset="100%" style="stop-color:#78350f"/>
    </linearGradient>
    <linearGradient id="soilGrad" x1="0%" y1="0%" x2="0%" y2="100%">
      <stop offset="0%" style="stop-color:#78716c"/>
      <stop offset="100%" style="stop-color:#57534e"/>
    </linearGradient>
  </defs>
  <!-- Casa con tuberia, medidor y bomba hacia el estanque -->
  <g opacity="0.9">
    <!-- Casa: parte derecha vista, volteada para mostrar lateral izquierdo -->
    <g transform="translate(80, 0) translate(-217.5, 0) scale(-1, 1) translate(217.5, 0)">
      <!-- Pared mediterranea (estuco blanco) -->
      <rect x="-310" y="-70" width="185" height="520" rx="2" fill="#fafaf9" stroke="#e7e5e4" stroke-width="1"/>
      <!-- Techo (tejas terracota - gradiente y lineas de tejas) -->
      <path d="M -310 -70 L -285 -100 L -125 -100 L -125 -70 Z" fill="url(#tileGrad)" stroke="#7c2d12" stroke-width="1"/>
      <path d="M -308 -68 Q -293 -78 -278 -68 Q -263 -58 -248 -68 Q -233 -78 -218 -68 Q -203 -58 -188 -68 Q -173 -78 -158 -68 Q -143 -58 -128 -68" fill="none" stroke="#7c2d12" stroke-width="1.2" opacity="0.6"/>
      <path d="M -306 -66 Q -291 -76 -276 -66 Q -261 -56 -246 -66 Q -231 -76 -216 -66 Q -201 -56 -186 -66 Q -171 -76 -156 -66" fill="none" stroke="#5c1d0c" stroke-width="1" opacity="0.5"/>
      <path d="M -304 -64 Q -289 -74 -274 -64 Q -259 -54 -244 -64 Q -229 -74 -214 -64 Q -199 -54 -184 -64" fill="none" stroke="#7c2d12" stroke-width="1" opacity="0.4"/>
      <!-- Porche vista lateral (hasta nivel tierra y=380) -->
      <path d="M -382 -45 L -378 -65 L -318 -65 L -318 -45 Z" fill="url(#tileGrad)" stroke="#7c2d12" stroke-width="0.8"/>
      <rect x="-382" y="-42" width="66" height="8" fill="#78716c" stroke="#57534e"/>
      <rect x="-382" y="-34" width="66" height="414" fill="#f5f5f4" stroke="#d6d3d1" stroke-width="0.8"/>
      <line x1="-316" y1="-34" x2="-316" y2="380" stroke="#a8a29e" stroke-width="2"/>
      <rect x="-380" y="75" width="8" height="301" fill="#57534e" stroke="#44403c"/>
      <rect x="-382" y="374" width="66" height="6" rx="1" fill="#78716c" stroke="#57534e"/>
      <!-- Ventana mediterranea (marco blanco, subida, aspecto real) -->
      <rect x="-302" y="20" width="177" height="280" rx="4" fill="#fafaf9" stroke="#d6d3d1" stroke-width="3"/>
      <rect x="-298" y="24" width="169" height="272" rx="2" fill="url(#windowGlass)" stroke="#e7e5e4" stroke-width="1"/>
      <line x1="-215.5" y1="24" x2="-215.5" y2="296" stroke="#d6d3d1" stroke-width="2"/>
      <line x1="-298" y1="160" x2="-129" y2="160" stroke="#d6d3d1" stroke-width="2"/>
      <rect x="-302" y="20" width="177" height="280" rx="4" fill="none" stroke="#a8a29e" stroke-width="0.5" opacity="0.5"/>
      <!-- Lavamanos (interior, visible por ventana) -->
      <rect x="-205" y="355" width="45" height="18" rx="4" fill="#e2e8f0" stroke="#64748b"/>
      <rect x="-203" y="358" width="41" height="12" rx="2" fill="#94a3b8" fill-opacity="0.3"/>
      <!-- Llave de agua (grande, con manija visible) -->
      <g transform="translate(-183, 338) scale(2.5)">
        <!-- Cuerpo del grifo -->
        <rect x="-4" y="0" width="8" height="24" rx="3" fill="#64748b" stroke="#475569" stroke-width="1"/>
        <rect x="-3" y="18" width="6" height="12" rx="2" fill="#94a3b8"/>
        <!-- Pico/boquilla -->
        <rect x="-2.5" y="28" width="5" height="6" rx="1" fill="#94a3b8" stroke="#64748b"/>
        <!-- Manija para abrir/cerrar (gira visiblemente al cerrar cuando baja nivel) -->
        <g transform="translate(8, 4)">
          <animateTransform attributeName="transform" type="rotate" values="-45 0 4;-45 0 4;0 0 4;0 0 4;-45 0 4;-45 0 4" keyTimes="0;0.32;0.38;0.58;0.6;1" dur="24s" repeatCount="indefinite"/>
          <!-- Brazo de la manija -->
          <rect x="0" y="2" width="14" height="4" rx="2" fill="#64748b" stroke="#475569" stroke-width="0.8"/>
          <!-- Volante/rueda de la manija -->
          <circle cx="14" cy="4" r="5" fill="#94a3b8" stroke="#64748b" stroke-width="1"/>
          <circle cx="14" cy="4" r="2" fill="#cbd5e1"/>
        </g>
      </g>
      <!-- Enredaderas en la pared (llegan hasta las plantas de la jardinera) -->
      <path d="M -305 25 Q -295 80 -285 140 Q -278 220 -272 300 Q -268 360 -265 418 Q -263 435 -260 448" fill="none" stroke="#22c55e" stroke-width="4" stroke-linecap="round"/>
      <ellipse cx="-298" cy="50" rx="6" ry="10" fill="#16a34a" transform="rotate(-15 -298 50)"/>
      <ellipse cx="-290" cy="95" rx="5" ry="9" fill="#15803d" transform="rotate(10 -290 95)"/>
      <ellipse cx="-282" cy="160" rx="6" ry="10" fill="#22c55e" transform="rotate(-8 -282 160)"/>
      <ellipse cx="-275" cy="240" rx="5" ry="9" fill="#16a34a" transform="rotate(15 -275 240)"/>
      <ellipse cx="-268" cy="340" rx="6" ry="10" fill="#15803d" transform="rotate(-10 -268 340)"/>
      <ellipse cx="-262" cy="415" rx="6" ry="10" fill="#22c55e" transform="rotate(-5 -262 415)"/>
      <ellipse cx="-258" cy="438" rx="5" ry="8" fill="#16a34a" transform="rotate(12 -258 438)"/>
      <path d="M -128 30 Q -145 100 -160 180 Q -172 260 -175 340 Q -177 380 -178 418 Q -179 435 -180 448" fill="none" stroke="#22c55e" stroke-width="3" stroke-linecap="round"/>
      <ellipse cx="-138" cy="70" rx="5" ry="8" fill="#16a34a" transform="rotate(20 -138 70)"/>
      <ellipse cx="-152" cy="140" rx="6" ry="9" fill="#15803d" transform="rotate(-12 -152 140)"/>
      <ellipse cx="-168" cy="220" rx="5" ry="8" fill="#22c55e" transform="rotate(8 -168 220)"/>
      <ellipse cx="-175" cy="320" rx="6" ry="9" fill="#16a34a" transform="rotate(-15 -175 320)"/>
      <ellipse cx="-178" cy="415" rx="5" ry="8" fill="#15803d" transform="rotate(8 -178 415)"/>
      <ellipse cx="-182" cy="438" rx="6" ry="9" fill="#22c55e" transform="rotate(-10 -182 438)"/>
      <!-- Jardinera terracota realista (maceta tipo ventana) -->
      <path d="M-240 418 L-115 418 L-125 562 L-230 562 Z" fill="url(#planterGrad)" stroke="#92400e" stroke-width="1.5"/>
      <path d="M-235 413 L-120 413 L-120 418 L-235 418 Z" fill="#78350f" stroke="#92400e" stroke-width="0.8"/>
      <rect x="-232" y="415" width="115" height="8" rx="2" fill="url(#soilGrad)" stroke="#57534e" stroke-width="0.5"/>
      <!-- Hojas realistas (forma de hoja con punta) -->
      <path d="M-220 420 Q-200 410 -185 430 Q-195 435 -220 445 Z" fill="#166534" stroke="#15803d" stroke-width="0.5"/>
      <path d="M-210 415 Q-195 400 -175 420 Q-188 428 -210 438 Z" fill="#15803d" stroke="#16a34a" stroke-width="0.5"/>
      <path d="M-195 418 Q-178 405 -160 422 Q-172 432 -195 442 Z" fill="#16a34a" stroke="#22c55e" stroke-width="0.5"/>
      <path d="M-180 422 Q-165 412 -148 428 Q-160 435 -180 448 Z" fill="#166534" stroke="#15803d" stroke-width="0.5"/>
      <path d="M-165 415 Q-148 402 -130 418 Q-142 428 -165 440 Z" fill="#15803d" stroke="#16a34a" stroke-width="0.5"/>
      <path d="M-225 445 Q-208 435 -190 455 Q-205 462 -225 472 Z" fill="#16a34a" stroke="#22c55e" stroke-width="0.5"/>
      <path d="M-200 448 Q-183 438 -165 455 Q-178 465 -200 478 Z" fill="#166534" stroke="#15803d" stroke-width="0.5"/>
      <path d="M-175 452 Q-158 442 -140 458 Q-153 468 -175 482 Z" fill="#15803d" stroke="#16a34a" stroke-width="0.5"/>
      <path d="M-155 455 Q-138 445 -120 462 Q-133 472 -155 488 Z" fill="#16a34a" stroke="#22c55e" stroke-width="0.5"/>
      <!-- Hortensias (racimos esfericos de florecitas) -->
      <g fill="#7c3aed" opacity="0.9">
        <circle cx="-215" cy="398" r="5"/><circle cx="-210" cy="392" r="4"/><circle cx="-220" cy="392" r="4"/>
        <circle cx="-208" cy="402" r="4"/><circle cx="-222" cy="402" r="4"/><circle cx="-215" cy="406" r="4"/>
        <circle cx="-205" cy="396" r="4"/><circle cx="-225" cy="396" r="4"/><circle cx="-212" cy="400" r="3"/>
      </g>
      <g fill="#a78bfa" opacity="0.85">
        <circle cx="-178" cy="395" r="5"/><circle cx="-173" cy="389" r="4"/><circle cx="-183" cy="389" r="4"/>
        <circle cx="-171" cy="399" r="4"/><circle cx="-185" cy="399" r="4"/><circle cx="-178" cy="403" r="4"/>
      </g>
      <!-- Rosas (petalos superpuestos) -->
      <g transform="translate(-155, 400)">
        <ellipse cx="0" cy="0" rx="6" ry="8" fill="#ec4899" transform="rotate(0)"/>
        <ellipse cx="0" cy="0" rx="5" ry="7" fill="#f472b6" transform="rotate(72)"/>
        <ellipse cx="0" cy="0" rx="5" ry="7" fill="#f472b6" transform="rotate(144)"/>
        <ellipse cx="0" cy="0" rx="5" ry="7" fill="#f472b6" transform="rotate(216)"/>
        <ellipse cx="0" cy="0" rx="5" ry="7" fill="#f472b6" transform="rotate(288)"/>
        <circle cx="0" cy="0" r="3" fill="#fbbf24"/>
      </g>
      <g transform="translate(-135, 402)">
        <ellipse cx="0" cy="0" rx="6" ry="8" fill="#dc2626" transform="rotate(0)"/>
        <ellipse cx="0" cy="0" rx="5" ry="7" fill="#f87171" transform="rotate(72)"/>
        <ellipse cx="0" cy="0" rx="5" ry="7" fill="#f87171" transform="rotate(144)"/>
        <ellipse cx="0" cy="0" rx="5" ry="7" fill="#f87171" transform="rotate(216)"/>
        <ellipse cx="0" cy="0" rx="5" ry="7" fill="#f87171" transform="rotate(288)"/>
        <circle cx="0" cy="0" r="3" fill="#fbbf24"/>
      </g>
      <!-- Geranios/Petunias (5 petalos) -->
      <g transform="translate(-195, 435)">
        <path d="M0 -8 Q4 -4 0 0 Q-4 -4 0 -8" fill="#ec4899"/>
        <path d="M0 -8 Q4 -4 0 0 Q-4 -4 0 -8" fill="#ec4899" transform="rotate(72)"/>
        <path d="M0 -8 Q4 -4 0 0 Q-4 -4 0 -8" fill="#ec4899" transform="rotate(144)"/>
        <path d="M0 -8 Q4 -4 0 0 Q-4 -4 0 -8" fill="#ec4899" transform="rotate(216)"/>
        <path d="M0 -8 Q4 -4 0 0 Q-4 -4 0 -8" fill="#ec4899" transform="rotate(288)"/>
        <circle cx="0" cy="0" r="4" fill="#fbbf24"/>
      </g>
      <g transform="translate(-160, 448)">
        <path d="M0 -7 Q3 -3 0 0 Q-3 -3 0 -7" fill="#dc2626"/>
        <path d="M0 -7 Q3 -3 0 0 Q-3 -3 0 -7" fill="#dc2626" transform="rotate(72)"/>
        <path d="M0 -7 Q3 -3 0 0 Q-3 -3 0 -7" fill="#dc2626" transform="rotate(144)"/>
        <path d="M0 -7 Q3 -3 0 0 Q-3 -3 0 -7" fill="#dc2626" transform="rotate(216)"/>
        <path d="M0 -7 Q3 -3 0 0 Q-3 -3 0 -7" fill="#dc2626" transform="rotate(288)"/>
        <circle cx="0" cy="0" r="3" fill="#fbbf24"/>
      </g>
      <!-- Margaritas (petalos blancos alrededor del centro) -->
      <g transform="translate(-125, 442)">
        <ellipse cx="0" cy="-6" rx="2" ry="6" fill="#fef3c7" transform="rotate(0)"/>
        <ellipse cx="0" cy="-6" rx="2" ry="6" fill="#fef3c7" transform="rotate(45)"/>
        <ellipse cx="0" cy="-6" rx="2" ry="6" fill="#fef3c7" transform="rotate(90)"/>
        <ellipse cx="0" cy="-6" rx="2" ry="6" fill="#fef3c7" transform="rotate(135)"/>
        <ellipse cx="0" cy="-6" rx="2" ry="6" fill="#fef3c7" transform="rotate(180)"/>
        <ellipse cx="0" cy="-6" rx="2" ry="6" fill="#fef3c7" transform="rotate(225)"/>
        <ellipse cx="0" cy="-6" rx="2" ry="6" fill="#fef3c7" transform="rotate(270)"/>
        <ellipse cx="0" cy="-6" rx="2" ry="6" fill="#fef3c7" transform="rotate(315)"/>
        <circle cx="0" cy="0" r="5" fill="#fde047"/>
      </g>
      <!-- Plantas colgantes (sobresalen abajo) -->
      <path d="M-210 520 Q-225 545 -205 565 Q-195 550 -210 520" fill="#166534" stroke="#15803d" stroke-width="0.5"/>
      <path d="M-185 525 Q-200 548 -182 568 Q-172 552 -185 525" fill="#15803d" stroke="#16a34a" stroke-width="0.5"/>
      <path d="M-160 518 Q-178 542 -155 562 Q-145 548 -160 518" fill="#16a34a" stroke="#22c55e" stroke-width="0.5"/>
      <!-- Flores colgantes (petunias) -->
      <g transform="translate(-210, 555)">
        <ellipse cx="0" cy="0" rx="4" ry="6" fill="#a855f7"/>
        <ellipse cx="0" cy="0" rx="3" ry="5" fill="#c084fc" transform="rotate(60)"/>
        <ellipse cx="0" cy="0" rx="3" ry="5" fill="#c084fc" transform="rotate(120)"/>
        <circle cx="0" cy="0" r="2" fill="#fbbf24"/>
      </g>
      <g transform="translate(-182, 560)">
        <ellipse cx="0" cy="0" rx="4" ry="6" fill="#ec4899"/>
        <ellipse cx="0" cy="0" rx="3" ry="5" fill="#f472b6" transform="rotate(60)"/>
        <ellipse cx="0" cy="0" rx="3" ry="5" fill="#f472b6" transform="rotate(120)"/>
        <circle cx="0" cy="0" r="2" fill="#fbbf24"/>
      </g>
    </g>
    <!-- Conexion horizontal casa -> tuberia vertical (sale de la pared) -->
    <rect x="-87" y="430" width="52" height="20" rx="5" fill="#57534e" stroke="#44403c" stroke-width="1"/>
    <rect x="-86" y="432" width="49" height="16" rx="3" fill="#38bdf8" fill-opacity="0.5">
      <animate attributeName="opacity" values="1;1;0.2;0.2;1;1" keyTimes="0;0.35;0.38;0.58;0.6;1" dur="24s" repeatCount="indefinite"/>
    </rect>
    <!-- Tuberia vertical casa -> tuberia soterrada (desde cimentacion) -->
    <rect x="-87" y="435" width="22" height="22" rx="4" fill="#78716c" stroke="#57534e"/>
    <rect x="-83" y="400" width="18" height="52" rx="4" fill="#57534e" stroke="#44403c" stroke-width="1"/>
    <rect x="-81" y="402" width="14" height="48" rx="3" fill="#38bdf8" fill-opacity="0.4">
      <animate attributeName="opacity" values="1;1;0.2;0.2;1;1" keyTimes="0;0.35;0.38;0.58;0.6;1" dur="24s" repeatCount="indefinite"/>
    </rect>
    <!-- Tuberia horizontal soterrada (casa al estanque, diametro +10) -->
    <rect x="-75" y="395" width="198" height="22" rx="6" fill="#57534e" stroke="#44403c" stroke-width="1"/>
    <!-- Agua dentro de la tuberia soterrada (se corta cuando nivel rojo) -->
    <rect x="-72" y="398" width="192" height="16" rx="4" fill="#38bdf8" fill-opacity="0.7">
      <animate attributeName="opacity" values="0.7;0.7;0.15;0.15;0.7;0.7" keyTimes="0;0.35;0.38;0.58;0.6;1" dur="24s" repeatCount="indefinite"/>
    </rect>
    <!-- Flujo animado de agua (solo cuando nivel OK, no rojo) -->
    <g clip-path="url(#pipeClip)">
      <line x1="-72" y1="406" x2="120" y2="406" stroke="#7dd3fc" stroke-width="4" stroke-dasharray="8 12">
        <animate attributeName="stroke-dashoffset" from="0" to="20" dur="1.5s" repeatCount="indefinite"/>
        <animate attributeName="opacity" values="1;1;0;0;1;1" keyTimes="0;0.35;0.38;0.58;0.6;1" dur="24s" repeatCount="indefinite"/>
      </line>
      <line x1="-72" y1="406" x2="120" y2="406" stroke="#bae6fd" stroke-width="3" stroke-dasharray="6 14" opacity="0.7">
        <animate attributeName="stroke-dashoffset" from="14" to="0" dur="1.5s" repeatCount="indefinite"/>
        <animate attributeName="opacity" values="0.7;0.7;0;0;0.7;0.7" keyTimes="0;0.35;0.38;0.58;0.6;1" dur="24s" repeatCount="indefinite"/>
      </line>
    </g>
    <!-- Llave de paso (valvula con cruz que gira: cerrada=nivel rojo, abierta=agua pasa) -->
    <rect x="-45" y="382" width="22" height="36" rx="4" fill="#475569" stroke="#64748b" stroke-width="1"/>
    <g transform="translate(-34, 392)">
      <g>
        <animateTransform attributeName="transform" type="rotate" values="0 0 0;0 0 0;90 0 0;90 0 0;0 0 0;0 0 0" keyTimes="0;0.35;0.38;0.58;0.6;1" dur="24s" repeatCount="indefinite"/>
        <rect x="-4" y="-6" width="8" height="12" rx="2" fill="#94a3b8" stroke="#64748b"/>
        <rect x="-6" y="-4" width="12" height="8" rx="2" fill="#94a3b8" stroke="#64748b"/>
      </g>
    </g>
    <!-- Medidor (en zanja soterrada, +10) -->
    <rect x="-22" y="383" width="34" height="42" rx="5" fill="#1e293b" stroke="#64748b" stroke-width="1"/>
    <circle cx="-5" cy="402" r="8" fill="#0f172a" stroke="#38bdf8" stroke-width="1"/>
    <line x1="-5" y1="394" x2="-5" y2="400" stroke="#38bdf8" stroke-width="1"/>
    <line x1="-9" y1="402" x2="-1" y2="402" stroke="#38bdf8" stroke-width="1"/>
    <!-- Bomba (+10) -->
    <circle cx="55" cy="406" r="18" fill="#334155" stroke="#64748b" stroke-width="1"/>
    <circle cx="55" cy="406" r="8" fill="#475569"/>
    <path d="M 55 396 L 55 416 M 45 406 L 65 406" stroke="#94a3b8" stroke-width="1.5"/>
    <!-- Tuberia vertical al estanque (bajo tierra, diametro +10) -->
    <rect x="109" y="400" width="20" height="100" rx="4" fill="#57534e" stroke="#44403c" stroke-width="1"/>
    <!-- Flujo agua en tuberia vertical (se corta cuando nivel rojo) -->
    <line x1="119" y1="402" x2="119" y2="498" stroke="#38bdf8" stroke-width="6" stroke-dasharray="4 8">
      <animate attributeName="stroke-dashoffset" from="0" to="12" dur="1.2s" repeatCount="indefinite"/>
      <animate attributeName="opacity" values="1;1;0;0;1;1" keyTimes="0;0.35;0.38;0.58;0.6;1" dur="24s" repeatCount="indefinite"/>
    </line>
  </g>
  <!-- Tierra (linea mas abajo - mas cielo arriba, recorte jardinera y estanque) -->
  <path fill="url(#earthGrad)" fill-rule="evenodd" d="M-220 380H900V1230H-220ZM120 460H300V520H120ZM-80 390H125V420H-80ZM-245 410H-115V565H-245Z"/>
  <!-- Chorro de agua (sobre la tierra, bajado 10) -->
  <g transform="translate(80, 0) translate(-217.5, 0) scale(-1, 1) translate(217.5, 0)">
    <g transform="translate(-183, 338) scale(2.5)">
      <g>
        <animate attributeName="opacity" values="1;0;0;0;1;1" keyTimes="0;0.35;0.38;0.58;0.6;1" dur="24s" repeatCount="indefinite"/>
        <path d="M 0 12 Q 2 25 0 40 Q 3 80 0 120 Q -2 160 0 180" fill="none" stroke="#0ea5e9" stroke-width="8" stroke-linecap="round" stroke-dasharray="8 12">
          <animate attributeName="stroke-dashoffset" from="0" to="20" dur="0.4s" repeatCount="indefinite"/>
        </path>
        <path d="M 0 12 Q 2 25 0 40 Q 3 80 0 120 Q -2 160 0 180" fill="none" stroke="#38bdf8" stroke-width="5" stroke-linecap="round" stroke-dasharray="6 14" opacity="0.95">
          <animate attributeName="stroke-dashoffset" from="14" to="0" dur="0.4s" repeatCount="indefinite"/>
        </path>
        <path d="M 0 12 Q 2 25 0 40 Q 3 80 0 120 Q -2 160 0 180" fill="none" stroke="#7dd3fc" stroke-width="3" stroke-linecap="round" opacity="0.85" stroke-dasharray="4 8">
          <animate attributeName="stroke-dashoffset" from="8" to="0" dur="0.4s" repeatCount="indefinite"/>
        </path>
      </g>
    </g>
  </g>
  <!-- Bordes zanja tuberias (bajo tierra) -->
  <line x1="-80" y1="390" x2="125" y2="390" stroke="#713f12" stroke-width="2"/>
  <line x1="-80" y1="420" x2="125" y2="420" stroke="#422006" stroke-width="1.5"/>
  <!-- Globos comic tipo sello (coordinados con nivel) -->
  <g font-family="sans-serif" font-size="11" fill="#1e293b">
    <!-- Globo 1: a la izquierda del telefono - visible solo cuando agua sobre linea roja -->
    <g transform="translate(320, 40)">
      <animate attributeName="opacity" values="0.92;0.92;0;0;0.92;0.92" keyTimes="0;0.35;0.38;0.58;0.6;1" dur="24s" repeatCount="indefinite"/>
      <rect x="0" y="0" width="224" height="92" rx="12" ry="12" fill="#fefce8" stroke="#eab308" stroke-width="1.5" stroke-dasharray="4 3"/>
      <path d="M 205 92 L 225 110 L 215 92 Z" fill="#fefce8" stroke="#eab308" stroke-width="1" stroke-dasharray="2 2"/>
      <text x="112" y="38" text-anchor="middle" fill="#1e293b" font-weight="500" font-size="18">Monitorea 24x7</text>
      <text x="112" y="62" text-anchor="middle" fill="#1e293b" font-weight="500" font-size="18">el nivel de Agua &#x1F4A7;</text>
    </g>
    <!-- Globo 2: al lado del telefono a la derecha - nivel rojo (alertas) -->
    <g transform="translate(640, -50) scale(1.2)">
      <animate attributeName="opacity" values="0;0;0.92;0.92;0;0" keyTimes="0;0.34;0.35;0.62;0.63;1" dur="24s" repeatCount="indefinite"/>
      <rect x="0" y="0" width="160" height="69" rx="12" ry="12" fill="#fef2f2" stroke="#dc2626" stroke-width="1.5" stroke-dasharray="4 3"/>
      <path d="M 0 44 L -18 67 L 0 61 Z" fill="#fef2f2" stroke="#dc2626" stroke-width="1" stroke-dasharray="2 2"/>
      <text x="80" y="28" text-anchor="middle" fill="#1e293b" font-weight="500" font-size="14">Alertas por correo o</text>
      <text x="80" y="46" text-anchor="middle" fill="#1e293b" font-weight="500" font-size="14">WhatsApp.</text>
      <use href="#whatsappIcon" x="77" y="46" width="18" height="18"/>
    </g>
    <!-- Globo 3: cierres automatizados - nivel rojo (valvula cerrada) -->
    <g transform="translate(-105, 255) scale(1.2)">
      <animate attributeName="opacity" values="0;0;0.92;0.92;0;0" keyTimes="0;0.34;0.35;0.62;0.63;1" dur="24s" repeatCount="indefinite"/>
      <rect x="0" y="0" width="180" height="56" rx="12" ry="12" fill="#f0fdf4" stroke="#22c55e" stroke-width="1.5" stroke-dasharray="4 3"/>
      <path d="M 158 56 L 178 74 L 168 56 Z" fill="#f0fdf4" stroke="#22c55e" stroke-width="1" stroke-dasharray="2 2"/>
      <text x="90" y="24" text-anchor="middle" fill="#1e293b" font-weight="500">Ejecuta cierres automatizados</text>
      <text x="90" y="40" text-anchor="middle" fill="#1e293b" font-weight="500">en llaves y tuber&#xED;as.</text>
    </g>
  </g>
  <!-- Camion repartidor: solo cuando nivel en rojo (35-60%), en movimiento, manguera se extiende -->
  <g>
    <animate attributeName="opacity" values="0;0;1;1;1;0;0" keyTimes="0;0.35;0.36;0.58;0.6;0.62;1" dur="24s" repeatCount="indefinite"/>
    <g transform="translate(460, 60)">
      <!-- Llega en marcha atras (35-36%), se va (55-57%) -->
      <animateTransform attributeName="transform" type="translate" additive="sum" values="210 0;210 0;0 0;0 0;0 0;210 0;210 0" keyTimes="0;0.35;0.36;0.58;0.6;0.62;1" dur="24s" repeatCount="indefinite"/>
      <g>
        <animateTransform attributeName="transform" type="translate" values="0 0;0 2;0 0" keyTimes="0;0.5;1" dur="1.2s" repeatCount="indefinite"/>
        <g transform="translate(0, 480) scale(2.4) translate(0, -480)">
          <!-- Parte posterior del camion (cisterna) -->
          <rect x="0" y="380" width="90" height="100" rx="4" fill="#334155" stroke="#475569" stroke-width="1"/>
          <rect x="5" y="385" width="80" height="50" rx="2" fill="#1e293b" stroke="#64748b"/>
          <rect x="8" y="388" width="35" height="44" rx="1" fill="#475569"/>
          <rect x="48" y="388" width="35" height="44" rx="1" fill="#475569"/>
          <!-- Agua en cisterna del camion: lleno al conectar, se vacia mientras llena el estanque -->
          <rect x="10" y="390" width="31" height="40" rx="1" fill="url(#waterGrad)" opacity="0.95">
            <animate attributeName="height" values="40;40;0;0;0" keyTimes="0;0.38;0.58;0.6;1" dur="24s" repeatCount="indefinite"/>
            <animate attributeName="y" values="390;390;430;430;430" keyTimes="0;0.38;0.58;0.6;1" dur="24s" repeatCount="indefinite"/>
          </rect>
          <rect x="50" y="390" width="31" height="40" rx="1" fill="url(#waterGrad)" opacity="0.95">
            <animate attributeName="height" values="40;40;0;0;0" keyTimes="0;0.38;0.58;0.6;1" dur="24s" repeatCount="indefinite"/>
            <animate attributeName="y" values="390;390;430;430;430" keyTimes="0;0.38;0.58;0.6;1" dur="24s" repeatCount="indefinite"/>
          </rect>
          <text x="45" y="415" font-size="12" fill="#94a3b8" text-anchor="middle">AGUA</text>
          <!-- Cabina delantera (estilo camion aljibe) -->
          <path d="M 90 480 L 90 408 L 96 398 L 138 398 L 144 408 L 144 480 Z" fill="#1e293b" stroke="#475569" stroke-width="1"/>
          <rect x="94" y="405" width="22" height="30" rx="2" fill="#64748b" fill-opacity="0.5"/>
          <rect x="118" y="405" width="22" height="30" rx="2" fill="#64748b" fill-opacity="0.5"/>
          <rect x="144" y="408" width="5" height="72" fill="#0f172a" stroke="#475569" stroke-width="0.6"/>
          <rect x="145" y="418" width="2" height="5" rx="0.5" fill="#64748b" fill-opacity="0.6"/>
          <rect x="145" y="430" width="2" height="5" rx="0.5" fill="#64748b" fill-opacity="0.6"/>
          <rect x="145" y="442" width="2" height="5" rx="0.5" fill="#64748b" fill-opacity="0.6"/>
          <!-- Ruedas traseras (cisterna) -->
          <circle cx="25" cy="480" r="18" fill="#1e293b" stroke="#64748b"/>
          <circle cx="25" cy="480" r="12" fill="#334155"/>
          <circle cx="65" cy="480" r="18" fill="#1e293b" stroke="#64748b"/>
          <circle cx="65" cy="480" r="12" fill="#334155"/>
          <!-- Rueda delantera (cabina) -->
          <circle cx="115" cy="480" r="18" fill="#1e293b" stroke="#64748b"/>
          <circle cx="115" cy="480" r="12" fill="#334155"/>
          <!-- Manguera: se extiende en movimiento desde camion al estanque -->
          <g>
            <animate attributeName="opacity" values="0;0;1;1;0" keyTimes="0;0.35;0.36;0.58;0.6" dur="24s" repeatCount="indefinite"/>
            <path d="M 0 420 Q -90 450 -160 430" fill="none" stroke="#64748b" stroke-width="6" stroke-linecap="round" pathLength="200" stroke-dasharray="200 200">
            <animate attributeName="stroke-dashoffset" values="200;200;0;0;200" keyTimes="0;0.35;0.42;0.58;0.6;1" dur="24s" repeatCount="indefinite"/>
          </path>
            <path d="M 0 420 Q -90 450 -160 430" fill="none" stroke="#38bdf8" stroke-width="4" stroke-linecap="round" pathLength="200" stroke-dasharray="200 200" opacity="0.85">
            <animate attributeName="stroke-dashoffset" values="200;200;0;0;200" keyTimes="0;0.35;0.42;0.58;0.6;1" dur="24s" repeatCount="indefinite"/>
          </path>
          </g>
        </g>
      </g>
    </g>
  </g>
  <!-- Estanque soterrado (solo 20% visible) -->
  <rect x="120" y="300" width="180" height="200" rx="20" fill="url(#tankGrad)" stroke="#475569" stroke-width="2"/>
  <rect x="123" y="303" width="174" height="12" rx="6" fill="#64748b" fill-opacity="0.5"/>
  <!-- Linea de nivel maximo (segmentada como la roja) -->
  <line x1="115" y1="340" x2="305" y2="340" stroke="#38bdf8" stroke-width="2" stroke-dasharray="8 6"/>
  <!-- Agua animada: se vacia (35%), se llena desde camion (38-58%), luego lleno -->
  <rect id="water" x="128" y="340" width="164" height="152" rx="16" fill="#38bdf8">
    <animate attributeName="height" values="152;45;45;152;152;152" keyTimes="0;0.35;0.38;0.58;0.6;1" keySplines="0.4 0 0.2 1; 0.4 0 0.2 1; 0.4 0 0.2 1; 0.4 0 0.2 1; 0.4 0 0.2 1" calcMode="spline" dur="24s" repeatCount="indefinite"/>
    <animate attributeName="y" values="340;455;455;340;340;340" keyTimes="0;0.35;0.38;0.58;0.6;1" keySplines="0.4 0 0.2 1; 0.4 0 0.2 1; 0.4 0 0.2 1; 0.4 0 0.2 1; 0.4 0 0.2 1" calcMode="spline" dur="24s" repeatCount="indefinite"/>
  </rect>
  <!-- Linea de nivel critico -->
  <line x1="115" y1="435" x2="305" y2="435" stroke="#ef4444" stroke-width="2" stroke-dasharray="8 6"/>
  <!-- Ondulacion superficie del agua (sigue el nivel) -->
  <g clip-path="url(#waterClip)">
    <animateTransform attributeName="transform" type="translate" values="0 0;0 115;0 115;0 0;0 0" keyTimes="0;0.35;0.38;0.58;0.6;1" keySplines="0.4 0 0.2 1; 0.4 0 0.2 1; 0.4 0 0.2 1; 0.4 0 0.2 1" calcMode="spline" dur="24s" repeatCount="indefinite"/>
    <path d="M128 340 Q165 338 210 341 Q255 339 292 340" fill="none" stroke="#7dd3fc" stroke-width="2" stroke-opacity="0.7">
      <animate attributeName="d" values="M128 340 Q165 338 210 341 Q255 339 292 340;M128 341 Q165 339 210 342 Q255 340 292 341;M128 340 Q165 342 210 339 Q255 341 292 340" dur="2.5s" repeatCount="indefinite"/>
    </path>
    <path d="M128 341 Q165 343 210 340 Q255 342 292 341" fill="none" stroke="#bae6fd" stroke-width="1.5" stroke-opacity="0.6">
      <animate attributeName="d" values="M128 341 Q165 343 210 340 Q255 342 292 341;M128 340 Q165 342 210 341 Q255 339 292 340;M128 341 Q165 343 210 340 Q255 342 292 341" dur="3s" repeatCount="indefinite" begin="0.5s"/>
    </path>
  </g>
  <!-- Sensor mejorado -->
  <g filter="url(#sensorGlow)">
    <rect x="193" y="238" width="34" height="60" rx="10" fill="url(#sensorGrad)" stroke="#64748b" stroke-width="1"/>
    <rect x="196" y="241" width="28" height="25" rx="6" fill="#1e293b" stroke="#38bdf8" stroke-width="1"/>
    <circle cx="210" cy="258" r="6" fill="#38bdf8">
      <animate attributeName="opacity" values="1;0.6;1" keyTimes="0;0.5;1" keySplines="0.4 0 0.2 1; 0.4 0 0.2 1" calcMode="spline" dur="2s" repeatCount="indefinite"/>
    </circle>
    <rect x="198" y="270" width="24" height="22" rx="4" fill="#334155"/>
  </g>
  <!-- Senales verdes hacia abajo (ultrasonido - se alargan cuando baja el nivel) -->
  <g opacity="0.9">
    <line x1="205" y1="298" x2="205" y2="338" stroke="#4ade80" stroke-width="2" stroke-dasharray="6 6">
      <animate attributeName="y2" values="340;455;455;340;340;340" keyTimes="0;0.35;0.38;0.58;0.6;1" keySplines="0.4 0 0.2 1; 0.4 0 0.2 1; 0.4 0 0.2 1; 0.4 0 0.2 1; 0.4 0 0.2 1" calcMode="spline" dur="24s" repeatCount="indefinite"/>
      <animate attributeName="stroke-dashoffset" from="0" to="-24" dur="0.8s" repeatCount="indefinite"/>
    </line>
    <line x1="210" y1="298" x2="210" y2="338" stroke="#4ade80" stroke-width="2" stroke-dasharray="6 6">
      <animate attributeName="y2" values="340;455;455;340;340;340" keyTimes="0;0.35;0.38;0.58;0.6;1" keySplines="0.4 0 0.2 1; 0.4 0 0.2 1; 0.4 0 0.2 1; 0.4 0 0.2 1; 0.4 0 0.2 1" calcMode="spline" dur="24s" repeatCount="indefinite"/>
      <animate attributeName="stroke-dashoffset" from="0" to="-24" dur="0.8s" repeatCount="indefinite" begin="0.2s"/>
    </line>
    <line x1="215" y1="298" x2="215" y2="338" stroke="#4ade80" stroke-width="2" stroke-dasharray="6 6">
      <animate attributeName="y2" values="340;455;455;340;340;340" keyTimes="0;0.35;0.38;0.58;0.6;1" keySplines="0.4 0 0.2 1; 0.4 0 0.2 1; 0.4 0 0.2 1; 0.4 0 0.2 1; 0.4 0 0.2 1" calcMode="spline" dur="24s" repeatCount="indefinite"/>
      <animate attributeName="stroke-dashoffset" from="0" to="-24" dur="0.8s" repeatCount="indefinite" begin="0.4s"/>
    </line>
  </g>
  <!-- Satelite (a altura del techo) -->
  <g opacity="0.95" transform="translate(25,-95)">
    <rect x="358" y="18" width="34" height="22" rx="4" fill="#334155" stroke="#475569" stroke-width="1"/>
    <!-- Panel solar izquierdo -->
    <rect x="328" y="20" width="32" height="18" rx="2" fill="url(#solarPanel)" stroke="#64748b" stroke-width="0.5"/>
    <line x1="334" y1="20" x2="334" y2="38" stroke="#1e3a8a" stroke-width="0.5" opacity="0.6"/>
    <line x1="340" y1="20" x2="340" y2="38" stroke="#1e3a8a" stroke-width="0.5" opacity="0.6"/>
    <line x1="346" y1="20" x2="346" y2="38" stroke="#1e3a8a" stroke-width="0.5" opacity="0.6"/>
    <line x1="352" y1="20" x2="352" y2="38" stroke="#1e3a8a" stroke-width="0.5" opacity="0.6"/>
    <!-- Panel solar derecho -->
    <rect x="400" y="20" width="32" height="18" rx="2" fill="url(#solarPanel)" stroke="#64748b" stroke-width="0.5"/>
    <line x1="406" y1="20" x2="406" y2="38" stroke="#1e3a8a" stroke-width="0.5" opacity="0.6"/>
    <line x1="412" y1="20" x2="412" y2="38" stroke="#1e3a8a" stroke-width="0.5" opacity="0.6"/>
    <line x1="418" y1="20" x2="418" y2="38" stroke="#1e3a8a" stroke-width="0.5" opacity="0.6"/>
    <line x1="424" y1="20" x2="424" y2="38" stroke="#1e3a8a" stroke-width="0.5" opacity="0.6"/>
    <ellipse cx="375" cy="26" rx="6" ry="4" fill="#1e293b" stroke="#38bdf8" stroke-width="1"/>
    <line x1="375" y1="18" x2="375" y2="8" stroke="#64748b" stroke-width="1"/>
    <circle cx="375" cy="6" r="3" fill="#94a3b8"/>
  </g>
  <!-- Ondas ultrasonido sensor -> satelite -->
  <g opacity="0.9" transform="translate(0,208) rotate(210 228 36)">
    <path d="M223 36 A 5 5 0 0 0 233 36" fill="none" stroke="#38bdf8" stroke-width="2">
      <animate attributeName="opacity" values="1;0.3" dur="1s" repeatCount="indefinite"/>
    </path>
    <path d="M208 36 A 20 20 0 0 0 248 36" fill="none" stroke="#38bdf8" stroke-width="2">
      <animate attributeName="opacity" values="0.6;1;0.2" keyTimes="0;0.2;1" dur="1s" repeatCount="indefinite" begin="0.15s"/>
    </path>
    <path d="M178 36 A 50 50 0 0 0 278 36" fill="none" stroke="#38bdf8" stroke-width="2">
      <animate attributeName="opacity" values="0.3;0.8;0.15" keyTimes="0;0.35;1" dur="1s" repeatCount="indefinite" begin="0.3s"/>
    </path>
    <path d="M148 36 A 80 80 0 0 0 308 36" fill="none" stroke="#38bdf8" stroke-width="2">
      <animate attributeName="opacity" values="0.2;0.6;0.1" keyTimes="0;0.5;1" dur="1s" repeatCount="indefinite" begin="0.45s"/>
    </path>
    <path d="M118 36 A 110 110 0 0 0 338 36" fill="none" stroke="#38bdf8" stroke-width="2">
      <animate attributeName="opacity" values="0.15;0.5;0.08" keyTimes="0;0.65;1" dur="1s" repeatCount="indefinite" begin="0.6s"/>
    </path>
    <path d="M88 36 A 140 140 0 0 0 368 36" fill="none" stroke="#38bdf8" stroke-width="2">
      <animate attributeName="opacity" values="0.1;0.4;0.05" keyTimes="0;0.8;1" dur="1s" repeatCount="indefinite" begin="0.75s"/>
    </path>
    <path d="M58 36 A 170 170 0 0 0 398 36" fill="none" stroke="#38bdf8" stroke-width="2">
      <animate attributeName="opacity" values="0.08;0.3;0" keyTimes="0;0.9;1" dur="1s" repeatCount="indefinite" begin="0.9s"/>
    </path>
    <path d="M28 36 A 200 200 0 0 0 428 36" fill="none" stroke="#38bdf8" stroke-width="2">
      <animate attributeName="opacity" values="0.05;0.25;0" keyTimes="0;1;1" dur="1s" repeatCount="indefinite" begin="1.05s"/>
    </path>
    <path d="M8 36 A 220 220 0 0 0 448 36" fill="none" stroke="#38bdf8" stroke-width="2">
      <animate attributeName="opacity" values="0.03;0.2;0" keyTimes="0;1;1" dur="1s" repeatCount="indefinite" begin="1.2s"/>
    </path>
  </g>
  <!-- Ondas satelite -> telefono (subida 120, derecha 30) -->
  <g opacity="0.85" transform="rotate(-70 455 -70)">
    <path d="M450 -70 A 5 5 0 0 0 460 -70" fill="none" stroke="#c4b5fd" stroke-width="2">
      <animate attributeName="opacity" values="1;0.3" dur="1s" repeatCount="indefinite"/>
    </path>
    <path d="M435 -70 A 20 20 0 0 0 475 -70" fill="none" stroke="#c4b5fd" stroke-width="2">
      <animate attributeName="opacity" values="0.6;1;0.2" keyTimes="0;0.2;1" dur="1s" repeatCount="indefinite" begin="0.15s"/>
    </path>
    <path d="M405 -70 A 50 50 0 0 0 505 -70" fill="none" stroke="#c4b5fd" stroke-width="2">
      <animate attributeName="opacity" values="0.3;0.8;0.15" keyTimes="0;0.35;1" dur="1s" repeatCount="indefinite" begin="0.3s"/>
    </path>
    <path d="M375 -70 A 80 80 0 0 0 535 -70" fill="none" stroke="#c4b5fd" stroke-width="2">
      <animate attributeName="opacity" values="0.2;0.6;0.1" keyTimes="0;0.5;1" dur="1s" repeatCount="indefinite" begin="0.45s"/>
    </path>
    <path d="M345 -70 A 110 110 0 0 0 565 -70" fill="none" stroke="#c4b5fd" stroke-width="2">
      <animate attributeName="opacity" values="0.15;0.5;0.08" keyTimes="0;0.65;1" dur="1s" repeatCount="indefinite" begin="0.6s"/>
    </path>
    <path d="M315 -70 A 140 140 0 0 0 595 -70" fill="none" stroke="#c4b5fd" stroke-width="2">
      <animate attributeName="opacity" values="0.1;0.4;0.05" keyTimes="0;0.8;1" dur="1s" repeatCount="indefinite" begin="0.75s"/>
    </path>
    <path d="M285 -70 A 170 170 0 0 0 625 -70" fill="none" stroke="#c4b5fd" stroke-width="2">
      <animate attributeName="opacity" values="0.08;0.3;0" keyTimes="0;0.9;1" dur="1s" repeatCount="indefinite" begin="0.9s"/>
    </path>
    <path d="M255 -70 A 200 200 0 0 0 655 -70" fill="none" stroke="#c4b5fd" stroke-width="2">
      <animate attributeName="opacity" values="0.05;0.25;0" keyTimes="0;1;1" dur="1s" repeatCount="indefinite" begin="1.05s"/>
    </path>
  </g>
  <!-- H2O -->
  <text x="210" y="415" text-anchor="middle" fill="white" font-size="24" font-weight="600">H<tspan font-size="16" dy="-4">2</tspan>O</text>
  <!-- Celular -->
  <g opacity="0.95">
    <rect x="555" y="30" width="120" height="200" rx="16" fill="#1e293b" stroke="#64748b" stroke-width="1"/>
    <rect x="559" y="34" width="112" height="192" rx="12" fill="#0ea5e9" fill-opacity="0.2"/>
    <!-- Icono WiFi (siempre visible, incluso con popups) -->
    <g fill="#94a3b8" transform="translate(653, 42) scale(1.2) translate(-8, -8)">
      <path d="M15.384 6.115a.485.485 0 0 0-.047-.736A12.44 12.44 0 0 0 8 3C5.259 3 2.723 3.882 .663 5.379a.485.485 0 0 0-.048.736.52.52 0 0 0 .668.05A11.45 11.45 0 0 1 8 4c2.507 0 4.827.802 6.716 2.164.205.148.49.13.668-.049"/>
      <path d="M13.229 8.271a.482.482 0 0 0-.063-.745A9.46 9.46 0 0 0 8 6c-1.905 0-3.68.56-5.166 1.526a.48.48 0 0 0-.063.745.525.525 0 0 0 .652.065A8.46 8.46 0 0 1 8 7a8.46 8.46 0 0 1 4.576 1.336c.206.132.48.108.653-.065m-2.183 2.183c.226-.226.185-.605-.1-.75A6.5 6.5 0 0 0 8 9c-1.06 0-2.062.254-2.946.704-.285.145-.326.524-.1.75l.015.015c.16.16.407.19.611.09A5.5 5.5 0 0 1 8 10c.868 0 1.69.201 2.42.56.203.1.45.07.61-.091zM9.06 12.44c.196-.196.198-.52-.04-.66A2 2 0 0 0 8 11.5a2 2 0 0 0-1.02.28c-.238.14-.236.464-.04.66l.706.706a.5.5 0 0 0 .707 0l.707-.707z"/>
    </g>
    <!-- Grafico de linea (nivel agua) - se oculta cuando aparecen las apps -->
    <g class="chart-phone" transform="translate(569, 68)">
      <line x1="0" y1="68" x2="92" y2="68" stroke="#64748b" stroke-width="1" marker-end="url(#arrowX)"/>
      <line x1="0" y1="68" x2="0" y2="0" stroke="#64748b" stroke-width="1" marker-end="url(#arrowY)"/>
      <path d="M 0 8 L 23 8 L 46 8 L 69 8 L 92 8" fill="none" stroke="#38bdf8" stroke-width="2" stroke-linecap="round" stroke-linejoin="round">
        <animate attributeName="d" values="M 0 8 L 23 8 L 46 8 L 69 8 L 92 8;M 0 8 L 23 28 L 46 48 L 69 64 L 92 64;M 0 8 L 23 28 L 46 48 L 69 64 L 92 64;M 0 8 L 23 8 L 46 8 L 69 8 L 92 8" keyTimes="0;0.35;0.6;1" keySplines="0.4 0 0.2 1; 0.4 0 0.2 1; 0.4 0 0.2 1" calcMode="spline" dur="24s" repeatCount="indefinite"/>
      </path>
      <line x1="0" y1="52" x2="92" y2="52" stroke="#ef4444" stroke-width="1.5" stroke-dasharray="4 4"/>
    </g>
    <text x="615" y="218" text-anchor="middle" fill="#94a3b8" font-size="10">tomi-metrics-collector</text>
  </g>
  <!-- Popup alerta + Apps: visible cuando agua baja linea roja (CSS animation) -->
  <g class="popup-alerts">
    <rect x="559" y="58" width="112" height="168" rx="12" fill="#1e293b" fill-opacity="0.9"/>
    <!-- Icono llamada (aparece con popups) - status bar, misma altura que WiFi -->
    <g filter="url(#callGlow)" fill="#94a3b8" transform="translate(567, 42) scale(0.7)">
      <animate attributeName="opacity" values="0.9;1;0.9" dur="1.2s" repeatCount="indefinite"/>
      <path fill-rule="evenodd" d="M1.885.511a1.745 1.745 0 0 1 2.61.163L6.29 2.98c.329.423.445.974.315 1.494l-.547 2.19a.68.68 0 0 0 .178.643l2.457 2.457a.68.68 0 0 0 .644.178l2.189-.547a1.75 1.75 0 0 1 1.494.315l2.306 1.794c.829.645.905 1.87.163 2.611l-1.034 1.034c-.74.74-1.846 1.065-2.877.702a18.6 18.6 0 0 1-7.01-4.42 18.6 18.6 0 0 1-4.42-7.009c-.362-1.03-.037-2.137.703-2.877z"/>
    </g>
    <rect x="580" y="75" width="70" height="45" rx="8" fill="#1e293b" stroke="#ef4444" stroke-width="1.5"/>
    <circle cx="615" cy="92" r="12" fill="#ef4444"/>
    <text x="615" y="97" text-anchor="middle" fill="white" font-size="14" font-weight="bold">!</text>
    <g transform="translate(563, 128)">
      <rect x="0" y="0" width="52" height="72" rx="6" fill="#111b21" stroke="#2a3942"/>
      <rect x="0" y="0" width="52" height="14" rx="6" fill="#25D366"/>
      <text x="26" y="10" text-anchor="middle" fill="white" font-size="6">WhatsApp</text>
      <rect x="4" y="18" width="44" height="22" rx="4" fill="#005c4b"/>
      <text x="26" y="32" text-anchor="middle" fill="#e9edef" font-size="5">Contacto</text>
      <rect x="4" y="44" width="36" height="14" rx="4" fill="#2a3942"/>
      <text x="8" y="53" font-size="4" fill="#e9edef">hay que solicitar agua</text>
      <rect x="4" y="44" width="36" height="14" rx="4" fill="#2a3942">
        <animate attributeName="width" values="36;36;0;0" keyTimes="0;0.36;0.5;0.62;1" keySplines="0.4 0 0.2 1; 0.4 0 0.2 1; 0.4 0 0.2 1" calcMode="spline" dur="24s" repeatCount="indefinite"/>
      </rect>
    </g>
    <g transform="translate(619, 128)">
      <rect x="0" y="0" width="52" height="72" rx="6" fill="#fff" stroke="#dadce0"/>
      <rect x="0" y="0" width="52" height="14" rx="6" fill="#ea4335"/>
      <text x="26" y="10" text-anchor="middle" fill="white" font-size="6">Gmail</text>
      <rect x="4" y="18" width="44" height="22" rx="4" fill="#f1f3f4"/>
      <text x="26" y="28" text-anchor="middle" fill="#5f6368" font-size="4">Para: proveedor@...</text>
      <text x="26" y="35" text-anchor="middle" fill="#5f6368" font-size="4">Asunto: Solicitar agua</text>
      <rect x="4" y="44" width="44" height="20" rx="4" fill="#fff" stroke="#dadce0"/>
      <text x="26" y="55" text-anchor="middle" fill="#34a853" font-size="5">Enviando...</text>
      <circle cx="38" cy="54" r="3" fill="#34a853" opacity="0.7">
        <animate attributeName="opacity" values="0.3;0.9;0.3" dur="1.2s" repeatCount="indefinite"/>
      </circle>
    </g>
  </g>
  <!-- Alerta -->
  <g opacity="0">
    <animate attributeName="opacity" values="0;0;0.95;0.95;0" keyTimes="0;0.3;0.38;0.62;0.7" keySplines="0.4 0 0.2 1; 0.4 0 0.2 1; 0.4 0 0.2 1; 0.4 0 0.2 1" calcMode="spline" dur="24s" repeatCount="indefinite"/>
    <circle cx="620" cy="170" r="35" fill="#ef4444"/>
    <text x="620" y="178" text-anchor="middle" fill="white" font-size="28" font-weight="bold">!</text>
  </g>
  <!-- Email WhatsApp -->
  <g opacity="0">
    <animate attributeName="opacity" values="0;0;0.95;0.95;0" keyTimes="0;0.4;0.48;0.67;0.75" keySplines="0.4 0 0.2 1; 0.4 0 0.2 1; 0.4 0 0.2 1; 0.4 0 0.2 1" calcMode="spline" dur="24s" repeatCount="indefinite"/>
    <text x="210" y="65" text-anchor="middle" fill="#94a3b8" font-size="14">Email / WhatsApp</text>
  </g>
  <!-- Camion -->
  <g opacity="0">
    <animate attributeName="opacity" values="0;0;0.95;0.95;0" keyTimes="0;0.55;0.62;0.78;0.85" keySplines="0.4 0 0.2 1; 0.4 0 0.2 1; 0.4 0 0.2 1; 0.4 0 0.2 1" calcMode="spline" dur="24s" repeatCount="indefinite"/>
    <animateTransform attributeName="transform" type="translate" values="-90 0;-90 0;0 0;0 0;-90 0" keyTimes="0;0.55;0.65;0.78;0.88;1" keySplines="0.4 0 0.2 1; 0.4 0 0.2 1; 0.4 0 0.2 1; 0.4 0 0.2 1; 0.4 0 0.2 1" calcMode="spline" dur="24s" repeatCount="indefinite"/>
    <rect x="80" y="250" width="70" height="50" rx="8" fill="#475569"/>
    <rect x="120" y="235" width="80" height="25" rx="6" fill="#64748b"/>
    <text x="115" y="280" text-anchor="middle" fill="#94a3b8" font-size="20">Camion</text>
  </g>
</svg>
