<?xml version="1.0" encoding="UTF-8"?>
<svg xmlns="http://www.w3.org/2000/svg" viewBox="-220 -200 900 540" class="anim-zoom">
  <defs>
    <style type="text/css">
      @keyframes popupShow {
        0%, 35% { opacity: 0; }
        36%, 62% { opacity: 1; }
        63%, 100% { opacity: 0; }
      }
      .popup-alerts { animation: popupShow 24s linear infinite; }
      @keyframes chartHide {
        0%, 35% { opacity: 1; }
        36%, 62% { opacity: 0; }
        63%, 100% { opacity: 1; }
      }
      .chart-phone { animation: chartHide 24s linear infinite; }
    </style>
    <linearGradient id="waterGrad" x1="0" y1="0" x2="0" y2="1" gradientUnits="objectBoundingBox">
      <stop offset="0%" style="stop-color:#0ea5e9"/>
      <stop offset="50%" style="stop-color:#38bdf8"/>
      <stop offset="100%" style="stop-color:#7dd3fc"/>
    </linearGradient>
    <linearGradient id="waterLow" x1="0%" y1="100%" x2="0%" y2="0%">
      <stop offset="0%" style="stop-color:#dc2626"/>
      <stop offset="100%" style="stop-color:#f87171"/>
    </linearGradient>
    <linearGradient id="tankGrad" x1="0%" y1="0%" x2="100%" y2="100%">
      <stop offset="0%" style="stop-color:#334155"/>
      <stop offset="50%" style="stop-color:#1e293b"/>
      <stop offset="100%" style="stop-color:#0f172a"/>
    </linearGradient>
    <linearGradient id="sensorGrad" x1="0%" y1="0%" x2="0%" y2="100%">
      <stop offset="0%" style="stop-color:#475569"/>
      <stop offset="100%" style="stop-color:#334155"/>
    </linearGradient>
    <filter id="glow">
      <feGaussianBlur stdDeviation="2" result="blur"/>
      <feMerge>
        <feMergeNode in="blur"/>
        <feMergeNode in="SourceGraphic"/>
      </feMerge>
    </filter>
    <linearGradient id="solarPanel" x1="0%" y1="0%" x2="100%" y2="100%">
      <stop offset="0%" style="stop-color:#3b82f6"/>
      <stop offset="50%" style="stop-color:#1d4ed8"/>
      <stop offset="100%" style="stop-color:#1e3a8a"/>
    </linearGradient>
    <clipPath id="waterClip">
      <rect x="128" y="80" width="164" height="250" rx="16"/>
    </clipPath>
    <filter id="sensorGlow">
      <feGaussianBlur stdDeviation="1" result="blur"/>
      <feMerge>
        <feMergeNode in="blur"/>
        <feMergeNode in="SourceGraphic"/>
      </feMerge>
    </filter>
    <filter id="callGlow" x="-80%" y="-80%" width="260%" height="260%">
      <feGaussianBlur in="SourceGraphic" stdDeviation="3" result="blur"/>
      <feFlood flood-color="#38bdf8" flood-opacity="0.5" result="color"/>
      <feComposite in="color" in2="blur" operator="in" result="glow"/>
      <feMerge>
        <feMergeNode in="glow"/>
        <feMergeNode in="SourceGraphic"/>
      </feMerge>
    </filter>
    <marker id="arrowX" markerWidth="8" markerHeight="6" refX="8" refY="3" orient="auto">
      <polygon points="0 0, 8 3, 0 6" fill="#64748b"/>
    </marker>
    <marker id="arrowY" markerWidth="6" markerHeight="8" refX="3" refY="0" orient="auto">
      <polygon points="0 8, 6 0, 6 8" fill="#64748b"/>
    </marker>
    <clipPath id="pipeClip">
      <rect x="-152" y="253" width="269" height="6" rx="3"/>
    </clipPath>
  </defs>
  <!-- Casa con tuberia, medidor y bomba hacia el estanque -->
  <g opacity="0.9">
    <!-- Casa (alejada a la izquierda) -->
    <path d="M -195 230 L -175 195 L -155 230 Z" fill="#94a3b8" stroke="#64748b" stroke-width="1"/>
    <rect x="-190" y="210" width="30" height="50" rx="2" fill="#cbd5e1" stroke="#64748b" stroke-width="1"/>
    <rect x="-182" y="230" width="10" height="30" fill="#64748b"/>
    <rect x="-178" y="218" width="8" height="8" fill="#38bdf8" stroke="#64748b"/>
    <!-- Tuberia horizontal (casa al estanque) -->
    <rect x="-155" y="250" width="278" height="12" rx="6" fill="#475569" stroke="#64748b" stroke-width="1"/>
    <!-- Agua dentro de la tuberia -->
    <rect x="-152" y="253" width="269" height="6" rx="3" fill="#38bdf8" fill-opacity="0.6"/>
    <!-- Flujo animado de agua -->
    <g clip-path="url(#pipeClip)">
      <line x1="-152" y1="256" x2="120" y2="256" stroke="#7dd3fc" stroke-width="3" stroke-dasharray="8 12">
        <animate attributeName="stroke-dashoffset" from="0" to="20" dur="1.5s" repeatCount="indefinite"/>
      </line>
      <line x1="-152" y1="256" x2="120" y2="256" stroke="#bae6fd" stroke-width="2" stroke-dasharray="6 14" opacity="0.7">
        <animate attributeName="stroke-dashoffset" from="14" to="0" dur="1.5s" repeatCount="indefinite"/>
      </line>
    </g>
    <!-- Medidor -->
    <rect x="-95" y="240" width="24" height="32" rx="4" fill="#1e293b" stroke="#64748b" stroke-width="1"/>
    <circle cx="-83" cy="254" r="6" fill="#0f172a" stroke="#38bdf8" stroke-width="1"/>
    <line x1="-83" y1="248" x2="-83" y2="252" stroke="#38bdf8" stroke-width="1"/>
    <line x1="-86" y1="254" x2="-80" y2="254" stroke="#38bdf8" stroke-width="1"/>
    <!-- Bomba -->
    <circle cx="-25" cy="256" r="14" fill="#334155" stroke="#64748b" stroke-width="1"/>
    <circle cx="-25" cy="256" r="6" fill="#475569"/>
    <path d="M -25 248 L -25 264 M -33 256 L -17 256" stroke="#94a3b8" stroke-width="1.5"/>
    <!-- Tuberia vertical al estanque -->
    <rect x="114" y="256" width="10" height="28" rx="4" fill="#475569" stroke="#64748b" stroke-width="1"/>
    <!-- Flujo agua en tuberia vertical -->
    <line x1="119" y1="258" x2="119" y2="282" stroke="#38bdf8" stroke-width="4" stroke-dasharray="4 8">
      <animate attributeName="stroke-dashoffset" from="0" to="12" dur="1.2s" repeatCount="indefinite"/>
    </line>
  </g>
  <!-- Estanque mejorado (tanque con profundidad y borde) -->
  <rect x="120" y="80" width="180" height="200" rx="20" fill="url(#tankGrad)" stroke="#475569" stroke-width="2"/>
  <rect x="123" y="83" width="174" height="12" rx="6" fill="#64748b" fill-opacity="0.5"/>
  <!-- Agua animada (siempre azul) -->
  <rect id="water" x="128" y="120" width="164" height="152" rx="16" fill="#38bdf8">
    <animate attributeName="height" values="152;45;45;152" keyTimes="0;0.35;0.6;1" keySplines="0.4 0 0.2 1; 0.4 0 0.2 1; 0.4 0 0.2 1" calcMode="spline" dur="24s" repeatCount="indefinite"/>
    <animate attributeName="y" values="120;235;235;120" keyTimes="0;0.35;0.6;1" keySplines="0.4 0 0.2 1; 0.4 0 0.2 1; 0.4 0 0.2 1" calcMode="spline" dur="24s" repeatCount="indefinite"/>
  </rect>
  <!-- Linea de nivel critico -->
  <line x1="115" y1="215" x2="305" y2="215" stroke="#ef4444" stroke-width="2" stroke-dasharray="8 6"/>
  <!-- Ondulacion superficie del agua (sigue el nivel) -->
  <g clip-path="url(#waterClip)">
    <animateTransform attributeName="transform" type="translate" values="0 0;0 115;0 115;0 0" keyTimes="0;0.35;0.6;1" keySplines="0.4 0 0.2 1; 0.4 0 0.2 1; 0.4 0 0.2 1" calcMode="spline" dur="24s" repeatCount="indefinite"/>
    <path d="M128 120 Q165 118 210 121 Q255 119 292 120" fill="none" stroke="#7dd3fc" stroke-width="2" stroke-opacity="0.7">
      <animate attributeName="d" values="M128 120 Q165 118 210 121 Q255 119 292 120;M128 121 Q165 119 210 122 Q255 120 292 121;M128 120 Q165 122 210 119 Q255 121 292 120" dur="2.5s" repeatCount="indefinite"/>
    </path>
    <path d="M128 121 Q165 123 210 120 Q255 122 292 121" fill="none" stroke="#bae6fd" stroke-width="1.5" stroke-opacity="0.6">
      <animate attributeName="d" values="M128 121 Q165 123 210 120 Q255 122 292 121;M128 120 Q165 122 210 121 Q255 119 292 120;M128 121 Q165 123 210 120 Q255 122 292 121" dur="3s" repeatCount="indefinite" begin="0.5s"/>
    </path>
  </g>
  <!-- Sensor mejorado -->
  <g filter="url(#sensorGlow)">
    <rect x="193" y="18" width="34" height="60" rx="10" fill="url(#sensorGrad)" stroke="#64748b" stroke-width="1"/>
    <rect x="196" y="21" width="28" height="25" rx="6" fill="#1e293b" stroke="#38bdf8" stroke-width="1"/>
    <circle cx="210" cy="38" r="6" fill="#38bdf8">
      <animate attributeName="opacity" values="1;0.6;1" keyTimes="0;0.5;1" keySplines="0.4 0 0.2 1; 0.4 0 0.2 1" calcMode="spline" dur="2s" repeatCount="indefinite"/>
    </circle>
    <rect x="198" y="50" width="24" height="22" rx="4" fill="#334155"/>
  </g>
  <!-- Senales verdes hacia abajo (ultrasonido - se alargan cuando baja el nivel) -->
  <g opacity="0.9">
    <line x1="205" y1="78" x2="205" y2="118" stroke="#4ade80" stroke-width="2" stroke-dasharray="6 6">
      <animate attributeName="y2" values="118;233;233;118" keyTimes="0;0.35;0.6;1" keySplines="0.4 0 0.2 1; 0.4 0 0.2 1; 0.4 0 0.2 1" calcMode="spline" dur="24s" repeatCount="indefinite"/>
      <animate attributeName="stroke-dashoffset" from="0" to="-24" dur="0.8s" repeatCount="indefinite"/>
    </line>
    <line x1="210" y1="78" x2="210" y2="118" stroke="#4ade80" stroke-width="2" stroke-dasharray="6 6">
      <animate attributeName="y2" values="118;233;233;118" keyTimes="0;0.35;0.6;1" keySplines="0.4 0 0.2 1; 0.4 0 0.2 1; 0.4 0 0.2 1" calcMode="spline" dur="24s" repeatCount="indefinite"/>
      <animate attributeName="stroke-dashoffset" from="0" to="-24" dur="0.8s" repeatCount="indefinite" begin="0.2s"/>
    </line>
    <line x1="215" y1="78" x2="215" y2="118" stroke="#4ade80" stroke-width="2" stroke-dasharray="6 6">
      <animate attributeName="y2" values="118;233;233;118" keyTimes="0;0.35;0.6;1" keySplines="0.4 0 0.2 1; 0.4 0 0.2 1; 0.4 0 0.2 1" calcMode="spline" dur="24s" repeatCount="indefinite"/>
      <animate attributeName="stroke-dashoffset" from="0" to="-24" dur="0.8s" repeatCount="indefinite" begin="0.4s"/>
    </line>
  </g>
  <!-- Satelite (cuerpo, paneles solares, antena - elevado) -->
  <g opacity="0.95" transform="translate(25,-175)">
    <rect x="358" y="18" width="34" height="22" rx="4" fill="#334155" stroke="#475569" stroke-width="1"/>
    <!-- Panel solar izquierdo -->
    <rect x="328" y="20" width="32" height="18" rx="2" fill="url(#solarPanel)" stroke="#64748b" stroke-width="0.5"/>
    <line x1="334" y1="20" x2="334" y2="38" stroke="#1e3a8a" stroke-width="0.5" opacity="0.6"/>
    <line x1="340" y1="20" x2="340" y2="38" stroke="#1e3a8a" stroke-width="0.5" opacity="0.6"/>
    <line x1="346" y1="20" x2="346" y2="38" stroke="#1e3a8a" stroke-width="0.5" opacity="0.6"/>
    <line x1="352" y1="20" x2="352" y2="38" stroke="#1e3a8a" stroke-width="0.5" opacity="0.6"/>
    <!-- Panel solar derecho -->
    <rect x="400" y="20" width="32" height="18" rx="2" fill="url(#solarPanel)" stroke="#64748b" stroke-width="0.5"/>
    <line x1="406" y1="20" x2="406" y2="38" stroke="#1e3a8a" stroke-width="0.5" opacity="0.6"/>
    <line x1="412" y1="20" x2="412" y2="38" stroke="#1e3a8a" stroke-width="0.5" opacity="0.6"/>
    <line x1="418" y1="20" x2="418" y2="38" stroke="#1e3a8a" stroke-width="0.5" opacity="0.6"/>
    <line x1="424" y1="20" x2="424" y2="38" stroke="#1e3a8a" stroke-width="0.5" opacity="0.6"/>
    <ellipse cx="375" cy="26" rx="6" ry="4" fill="#1e293b" stroke="#38bdf8" stroke-width="1"/>
    <line x1="375" y1="18" x2="375" y2="8" stroke="#64748b" stroke-width="1"/>
    <circle cx="375" cy="6" r="3" fill="#94a3b8"/>
  </g>
  <!-- Ondas ultrasonido sensor -> satelite (semicirculos que llegan al satelite) -->
  <g opacity="0.9" transform="translate(0,-12) rotate(210 228 36)">
    <path d="M223 36 A 5 5 0 0 0 233 36" fill="none" stroke="#38bdf8" stroke-width="2">
      <animate attributeName="opacity" values="1;0.3" dur="1s" repeatCount="indefinite"/>
    </path>
    <path d="M208 36 A 20 20 0 0 0 248 36" fill="none" stroke="#38bdf8" stroke-width="2">
      <animate attributeName="opacity" values="0.6;1;0.2" keyTimes="0;0.2;1" dur="1s" repeatCount="indefinite" begin="0.15s"/>
    </path>
    <path d="M178 36 A 50 50 0 0 0 278 36" fill="none" stroke="#38bdf8" stroke-width="2">
      <animate attributeName="opacity" values="0.3;0.8;0.15" keyTimes="0;0.35;1" dur="1s" repeatCount="indefinite" begin="0.3s"/>
    </path>
    <path d="M148 36 A 80 80 0 0 0 308 36" fill="none" stroke="#38bdf8" stroke-width="2">
      <animate attributeName="opacity" values="0.2;0.6;0.1" keyTimes="0;0.5;1" dur="1s" repeatCount="indefinite" begin="0.45s"/>
    </path>
    <path d="M118 36 A 110 110 0 0 0 338 36" fill="none" stroke="#38bdf8" stroke-width="2">
      <animate attributeName="opacity" values="0.15;0.5;0.08" keyTimes="0;0.65;1" dur="1s" repeatCount="indefinite" begin="0.6s"/>
    </path>
    <path d="M88 36 A 140 140 0 0 0 368 36" fill="none" stroke="#38bdf8" stroke-width="2">
      <animate attributeName="opacity" values="0.1;0.4;0.05" keyTimes="0;0.8;1" dur="1s" repeatCount="indefinite" begin="0.75s"/>
    </path>
    <path d="M58 36 A 170 170 0 0 0 398 36" fill="none" stroke="#38bdf8" stroke-width="2">
      <animate attributeName="opacity" values="0.08;0.3;0" keyTimes="0;0.9;1" dur="1s" repeatCount="indefinite" begin="0.9s"/>
    </path>
    <path d="M28 36 A 200 200 0 0 0 428 36" fill="none" stroke="#38bdf8" stroke-width="2">
      <animate attributeName="opacity" values="0.05;0.25;0" keyTimes="0;1;1" dur="1s" repeatCount="indefinite" begin="1.05s"/>
    </path>
    <path d="M8 36 A 220 220 0 0 0 448 36" fill="none" stroke="#38bdf8" stroke-width="2">
      <animate attributeName="opacity" values="0.03;0.2;0" keyTimes="0;1;1" dur="1s" repeatCount="indefinite" begin="1.2s"/>
    </path>
  </g>
  <!-- Ondas satelite -> telefono (semicirculos morado tenue, como sensor->satelite) -->
  <g opacity="0.85" transform="rotate(-70 425 -135)">
    <path d="M420 -135 A 5 5 0 0 0 430 -135" fill="none" stroke="#c4b5fd" stroke-width="2">
      <animate attributeName="opacity" values="1;0.3" dur="1s" repeatCount="indefinite"/>
    </path>
    <path d="M405 -135 A 20 20 0 0 0 445 -135" fill="none" stroke="#c4b5fd" stroke-width="2">
      <animate attributeName="opacity" values="0.6;1;0.2" keyTimes="0;0.2;1" dur="1s" repeatCount="indefinite" begin="0.15s"/>
    </path>
    <path d="M375 -135 A 50 50 0 0 0 475 -135" fill="none" stroke="#c4b5fd" stroke-width="2">
      <animate attributeName="opacity" values="0.3;0.8;0.15" keyTimes="0;0.35;1" dur="1s" repeatCount="indefinite" begin="0.3s"/>
    </path>
    <path d="M345 -135 A 80 80 0 0 0 505 -135" fill="none" stroke="#c4b5fd" stroke-width="2">
      <animate attributeName="opacity" values="0.2;0.6;0.1" keyTimes="0;0.5;1" dur="1s" repeatCount="indefinite" begin="0.45s"/>
    </path>
    <path d="M315 -135 A 110 110 0 0 0 535 -135" fill="none" stroke="#c4b5fd" stroke-width="2">
      <animate attributeName="opacity" values="0.15;0.5;0.08" keyTimes="0;0.65;1" dur="1s" repeatCount="indefinite" begin="0.6s"/>
    </path>
    <path d="M285 -135 A 140 140 0 0 0 565 -135" fill="none" stroke="#c4b5fd" stroke-width="2">
      <animate attributeName="opacity" values="0.1;0.4;0.05" keyTimes="0;0.8;1" dur="1s" repeatCount="indefinite" begin="0.75s"/>
    </path>
    <path d="M255 -135 A 170 170 0 0 0 595 -135" fill="none" stroke="#c4b5fd" stroke-width="2">
      <animate attributeName="opacity" values="0.08;0.3;0" keyTimes="0;0.9;1" dur="1s" repeatCount="indefinite" begin="0.9s"/>
    </path>
    <path d="M225 -135 A 200 200 0 0 0 625 -135" fill="none" stroke="#c4b5fd" stroke-width="2">
      <animate attributeName="opacity" values="0.05;0.25;0" keyTimes="0;1;1" dur="1s" repeatCount="indefinite" begin="1.05s"/>
    </path>
  </g>
  <!-- H2O -->
  <text x="210" y="195" text-anchor="middle" fill="white" font-size="24" font-weight="600">H<tspan font-size="16" dy="-4">2</tspan>O</text>
  <!-- Celular -->
  <g opacity="0.95">
    <rect x="555" y="-170" width="120" height="200" rx="16" fill="#1e293b" stroke="#64748b" stroke-width="1"/>
    <rect x="559" y="-166" width="112" height="192" rx="12" fill="#0ea5e9" fill-opacity="0.2"/>
    <!-- Icono WiFi (siempre visible, incluso con popups) -->
    <g fill="#94a3b8" transform="translate(653, -158) scale(1.2) translate(-8, -8)">
      <path d="M15.384 6.115a.485.485 0 0 0-.047-.736A12.44 12.44 0 0 0 8 3C5.259 3 2.723 3.882 .663 5.379a.485.485 0 0 0-.048.736.52.52 0 0 0 .668.05A11.45 11.45 0 0 1 8 4c2.507 0 4.827.802 6.716 2.164.205.148.49.13.668-.049"/>
      <path d="M13.229 8.271a.482.482 0 0 0-.063-.745A9.46 9.46 0 0 0 8 6c-1.905 0-3.68.56-5.166 1.526a.48.48 0 0 0-.063.745.525.525 0 0 0 .652.065A8.46 8.46 0 0 1 8 7a8.46 8.46 0 0 1 4.576 1.336c.206.132.48.108.653-.065m-2.183 2.183c.226-.226.185-.605-.1-.75A6.5 6.5 0 0 0 8 9c-1.06 0-2.062.254-2.946.704-.285.145-.326.524-.1.75l.015.015c.16.16.407.19.611.09A5.5 5.5 0 0 1 8 10c.868 0 1.69.201 2.42.56.203.1.45.07.61-.091zM9.06 12.44c.196-.196.198-.52-.04-.66A2 2 0 0 0 8 11.5a2 2 0 0 0-1.02.28c-.238.14-.236.464-.04.66l.706.706a.5.5 0 0 0 .707 0l.707-.707z"/>
    </g>
    <!-- Grafico de linea (nivel agua) - se oculta cuando aparecen las apps -->
    <g class="chart-phone" transform="translate(569, -132)">
      <line x1="0" y1="68" x2="92" y2="68" stroke="#64748b" stroke-width="1" marker-end="url(#arrowX)"/>
      <line x1="0" y1="68" x2="0" y2="0" stroke="#64748b" stroke-width="1" marker-end="url(#arrowY)"/>
      <path d="M 0 8 L 23 8 L 46 8 L 69 8 L 92 8" fill="none" stroke="#38bdf8" stroke-width="2" stroke-linecap="round" stroke-linejoin="round">
        <animate attributeName="d" values="M 0 8 L 23 8 L 46 8 L 69 8 L 92 8;M 0 8 L 23 28 L 46 48 L 69 64 L 92 64;M 0 8 L 23 28 L 46 48 L 69 64 L 92 64;M 0 8 L 23 8 L 46 8 L 69 8 L 92 8" keyTimes="0;0.35;0.6;1" keySplines="0.4 0 0.2 1; 0.4 0 0.2 1; 0.4 0 0.2 1" calcMode="spline" dur="24s" repeatCount="indefinite"/>
      </path>
      <line x1="0" y1="52" x2="92" y2="52" stroke="#ef4444" stroke-width="1.5" stroke-dasharray="4 4"/>
    </g>
    <text x="615" y="18" text-anchor="middle" fill="#94a3b8" font-size="10">tomi-metrics-collector</text>
  </g>
  <!-- Popup alerta + Apps: visible cuando agua baja linea roja (CSS animation) -->
  <g class="popup-alerts">
    <rect x="559" y="-142" width="112" height="168" rx="12" fill="#1e293b" fill-opacity="0.9"/>
    <!-- Icono llamada (aparece con popups) - status bar, misma altura que WiFi -->
    <g filter="url(#callGlow)" fill="#94a3b8" transform="translate(567, -158) scale(0.7)">
      <animate attributeName="opacity" values="0.9;1;0.9" dur="1.2s" repeatCount="indefinite"/>
      <path fill-rule="evenodd" d="M1.885.511a1.745 1.745 0 0 1 2.61.163L6.29 2.98c.329.423.445.974.315 1.494l-.547 2.19a.68.68 0 0 0 .178.643l2.457 2.457a.68.68 0 0 0 .644.178l2.189-.547a1.75 1.75 0 0 1 1.494.315l2.306 1.794c.829.645.905 1.87.163 2.611l-1.034 1.034c-.74.74-1.846 1.065-2.877.702a18.6 18.6 0 0 1-7.01-4.42 18.6 18.6 0 0 1-4.42-7.009c-.362-1.03-.037-2.137.703-2.877z"/>
    </g>
    <rect x="580" y="-125" width="70" height="45" rx="8" fill="#1e293b" stroke="#ef4444" stroke-width="1.5"/>
    <circle cx="615" cy="-108" r="12" fill="#ef4444"/>
    <text x="615" y="-103" text-anchor="middle" fill="white" font-size="14" font-weight="bold">!</text>
    <g transform="translate(563, -72)">
      <rect x="0" y="0" width="52" height="72" rx="6" fill="#111b21" stroke="#2a3942"/>
      <rect x="0" y="0" width="52" height="14" rx="6" fill="#25D366"/>
      <text x="26" y="10" text-anchor="middle" fill="white" font-size="6">WhatsApp</text>
      <rect x="4" y="18" width="44" height="22" rx="4" fill="#005c4b"/>
      <text x="26" y="32" text-anchor="middle" fill="#e9edef" font-size="5">Contacto</text>
      <rect x="4" y="44" width="36" height="14" rx="4" fill="#2a3942"/>
      <text x="8" y="53" font-size="4" fill="#e9edef">hay que solicitar agua</text>
      <rect x="4" y="44" width="36" height="14" rx="4" fill="#2a3942">
        <animate attributeName="width" values="36;36;0;0" keyTimes="0;0.36;0.5;0.62;1" keySplines="0.4 0 0.2 1; 0.4 0 0.2 1; 0.4 0 0.2 1" calcMode="spline" dur="24s" repeatCount="indefinite"/>
      </rect>
    </g>
    <g transform="translate(619, -72)">
      <rect x="0" y="0" width="52" height="72" rx="6" fill="#fff" stroke="#dadce0"/>
      <rect x="0" y="0" width="52" height="14" rx="6" fill="#ea4335"/>
      <text x="26" y="10" text-anchor="middle" fill="white" font-size="6">Gmail</text>
      <rect x="4" y="18" width="44" height="22" rx="4" fill="#f1f3f4"/>
      <text x="26" y="28" text-anchor="middle" fill="#5f6368" font-size="4">Para: proveedor@...</text>
      <text x="26" y="35" text-anchor="middle" fill="#5f6368" font-size="4">Asunto: Solicitar agua</text>
      <rect x="4" y="44" width="44" height="20" rx="4" fill="#fff" stroke="#dadce0"/>
      <text x="26" y="55" text-anchor="middle" fill="#34a853" font-size="5">Enviando...</text>
      <circle cx="38" cy="54" r="3" fill="#34a853" opacity="0.7">
        <animate attributeName="opacity" values="0.3;0.9;0.3" dur="1.2s" repeatCount="indefinite"/>
      </circle>
    </g>
  </g>
  <!-- Alerta -->
  <g opacity="0">
    <animate attributeName="opacity" values="0;0;0.95;0.95;0" keyTimes="0;0.3;0.38;0.62;0.7" keySplines="0.4 0 0.2 1; 0.4 0 0.2 1; 0.4 0 0.2 1; 0.4 0 0.2 1" calcMode="spline" dur="24s" repeatCount="indefinite"/>
    <circle cx="620" cy="70" r="35" fill="#ef4444"/>
    <text x="620" y="78" text-anchor="middle" fill="white" font-size="28" font-weight="bold">!</text>
  </g>
  <!-- Email WhatsApp -->
  <g opacity="0">
    <animate attributeName="opacity" values="0;0;0.95;0.95;0" keyTimes="0;0.4;0.48;0.67;0.75" keySplines="0.4 0 0.2 1; 0.4 0 0.2 1; 0.4 0 0.2 1; 0.4 0 0.2 1" calcMode="spline" dur="24s" repeatCount="indefinite"/>
    <text x="210" y="65" text-anchor="middle" fill="#94a3b8" font-size="14">Email / WhatsApp</text>
  </g>
  <!-- Camion -->
  <g opacity="0">
    <animate attributeName="opacity" values="0;0;0.95;0.95;0" keyTimes="0;0.55;0.62;0.78;0.85" keySplines="0.4 0 0.2 1; 0.4 0 0.2 1; 0.4 0 0.2 1; 0.4 0 0.2 1" calcMode="spline" dur="24s" repeatCount="indefinite"/>
    <animateTransform attributeName="transform" type="translate" values="-90 0;-90 0;0 0;0 0;-90 0" keyTimes="0;0.55;0.65;0.78;0.88;1" keySplines="0.4 0 0.2 1; 0.4 0 0.2 1; 0.4 0 0.2 1; 0.4 0 0.2 1; 0.4 0 0.2 1" calcMode="spline" dur="24s" repeatCount="indefinite"/>
    <rect x="80" y="250" width="70" height="50" rx="8" fill="#475569"/>
    <rect x="120" y="235" width="80" height="25" rx="6" fill="#64748b"/>
    <text x="115" y="280" text-anchor="middle" fill="#94a3b8" font-size="20">Camion</text>
  </g>
</svg>
