<svg fill="#67e8f9" role="img" viewBox="0 0 24 24" xmlns="http://www.w3.org/2000/svg"><title>WiFi</title><path d="M12 18c1.1 0 2 .9 2 2s-.9 2-2 2-2-.9-2-2 .9-2 2-2zm0-6c2.76 0 5.27 1.06 7.13 2.78.39.38.39 1.02 0 1.41-.39.39-1.02.39-1.41 0C16.5 14.28 14.36 13.5 12 13.5s-4.5.78-5.72 1.69c-.39.39-1.02.39-1.41 0-.39-.39-.39-1.02 0-1.41C6.73 13.06 9.24 12 12 12zm0-6c4.97 0 9.5 1.93 12.87 5.08.39.38.39 1.02 0 1.41-.39.39-1.02.39-1.41 0C20.5 8.28 16.36 6.5 12 6.5S3.5 8.28 1.54 9.99c-.39.39-1.02.39-1.41 0-.39-.39-.39-1.02 0-1.41C2.5 7.93 7.03 6 12 6z"/></svg>
